<svg xmlns="http://www.w3.org/2000/svg" xmlns:xlink="http://www.w3.org/1999/xlink" width="1400" zoomAndPan="magnify" viewBox="0 0 1050 409.499983" height="546" preserveAspectRatio="xMidYMid meet" version="1.0"><defs><g/><clipPath id="bb0d9c521d"><path d="M 0.640625 0 L 1049 0 L 1049 409 L 0.640625 409 Z M 0.640625 0 " clip-rule="nonzero"/></clipPath><clipPath id="44d1885a40"><rect x="0" width="386" y="0" height="36"/></clipPath><clipPath id="307365a6ed"><path d="M 1.835938 3 L 339.953125 3 L 339.953125 405.609375 L 1.835938 405.609375 Z M 1.835938 3 " clip-rule="nonzero"/></clipPath><clipPath id="9659d799d8"><rect x="0" width="1049" y="0" height="409"/></clipPath></defs><g clip-path="url(#bb0d9c521d)"><g transform="matrix(1, 0, 0, 1, 0, 0)"><g clip-path="url(#9659d799d8)"><g transform="matrix(1, 0, 0, 1, 351, 373)"><g clip-path="url(#44d1885a40)"><g fill="#f2a65a" fill-opacity="1"><g transform="translate(0.661873, 31.719462)"><g><path d="M 6.828125 -10.4375 L 0.671875 -29.125 L 4.03125 -29.125 L 8.578125 -14.8125 L 13.15625 -29.125 L 16.234375 -29.125 L 10.03125 -10.4375 L 10.03125 0 L 6.828125 0 Z M 6.828125 -10.4375 "/></g></g></g><g fill="#f2a65a" fill-opacity="1"><g transform="translate(16.929595, 31.719462)"><g><path d="M 1.421875 -22.09375 C 1.421875 -24.34375 1.96875 -26.125 3.0625 -27.4375 C 4.15625 -28.757812 5.828125 -29.421875 8.078125 -29.421875 C 10.316406 -29.421875 11.988281 -28.757812 13.09375 -27.4375 C 14.207031 -26.125 14.765625 -24.34375 14.765625 -22.09375 L 14.765625 -7.03125 C 14.765625 -4.8125 14.207031 -3.035156 13.09375 -1.703125 C 11.988281 -0.367188 10.316406 0.296875 8.078125 0.296875 C 5.828125 0.296875 4.15625 -0.367188 3.0625 -1.703125 C 1.96875 -3.035156 1.421875 -4.8125 1.421875 -7.03125 Z M 4.625 -6.859375 C 4.625 -5.535156 4.90625 -4.503906 5.46875 -3.765625 C 6.039062 -3.023438 6.910156 -2.65625 8.078125 -2.65625 C 9.265625 -2.65625 10.132812 -3.023438 10.6875 -3.765625 C 11.25 -4.503906 11.53125 -5.535156 11.53125 -6.859375 L 11.53125 -22.265625 C 11.53125 -23.597656 11.25 -24.628906 10.6875 -25.359375 C 10.132812 -26.097656 9.265625 -26.46875 8.078125 -26.46875 C 6.910156 -26.46875 6.039062 -26.097656 5.46875 -25.359375 C 4.90625 -24.628906 4.625 -23.597656 4.625 -22.265625 Z M 4.625 -6.859375 "/></g></g></g><g fill="#f2a65a" fill-opacity="1"><g transform="translate(33.114222, 31.719462)"><g><path d="M 4.75 -6.859375 C 4.75 -5.535156 5.015625 -4.503906 5.546875 -3.765625 C 6.085938 -3.023438 6.957031 -2.65625 8.15625 -2.65625 C 9.320312 -2.65625 10.175781 -3.023438 10.71875 -3.765625 C 11.257812 -4.503906 11.53125 -5.535156 11.53125 -6.859375 L 11.53125 -29.125 L 14.5625 -29.125 L 14.5625 -7.03125 C 14.5625 -4.8125 14.035156 -3.03125 12.984375 -1.6875 C 11.929688 -0.34375 10.28125 0.328125 8.03125 0.328125 C 5.8125 0.328125 4.175781 -0.34375 3.125 -1.6875 C 2.070312 -3.03125 1.546875 -4.8125 1.546875 -7.03125 L 1.546875 -29.125 L 4.75 -29.125 Z M 4.75 -6.859375 "/></g></g></g><g fill="#f2a65a" fill-opacity="1"><g transform="translate(49.215643, 31.719462)"><g><path d="M 8.15625 -29.125 C 10.457031 -29.125 12.113281 -28.554688 13.125 -27.421875 C 14.132812 -26.285156 14.640625 -24.632812 14.640625 -22.46875 L 14.640625 -20.09375 C 14.640625 -18.488281 14.347656 -17.1875 13.765625 -16.1875 C 13.191406 -15.1875 12.28125 -14.492188 11.03125 -14.109375 C 12.363281 -13.710938 13.304688 -12.992188 13.859375 -11.953125 C 14.410156 -10.921875 14.6875 -9.613281 14.6875 -8.03125 L 14.6875 -3.5 C 14.6875 -2.851562 14.710938 -2.234375 14.765625 -1.640625 C 14.828125 -1.046875 14.992188 -0.5 15.265625 0 L 11.984375 0 C 11.785156 -0.414062 11.644531 -0.863281 11.5625 -1.34375 C 11.476562 -1.832031 11.4375 -2.5625 11.4375 -3.53125 L 11.4375 -8.109375 C 11.4375 -9.742188 11.066406 -10.875 10.328125 -11.5 C 9.597656 -12.125 8.554688 -12.4375 7.203125 -12.4375 L 4.90625 -12.4375 L 4.90625 0 L 1.671875 0 L 1.671875 -29.125 Z M 7.328125 -15.390625 C 8.628906 -15.390625 9.640625 -15.660156 10.359375 -16.203125 C 11.078125 -16.742188 11.4375 -17.804688 11.4375 -19.390625 L 11.4375 -22.171875 C 11.4375 -23.503906 11.179688 -24.503906 10.671875 -25.171875 C 10.160156 -25.835938 9.296875 -26.171875 8.078125 -26.171875 L 4.90625 -26.171875 L 4.90625 -15.390625 Z M 7.328125 -15.390625 "/></g></g></g><g fill="#f2a65a" fill-opacity="1"><g transform="translate(65.6083, 31.719462)"><g/></g></g><g fill="#f2a65a" fill-opacity="1"><g transform="translate(72.057192, 31.719462)"><g><path d="M 8.03125 -29.125 C 10.332031 -29.125 11.992188 -28.492188 13.015625 -27.234375 C 14.046875 -25.972656 14.5625 -24.234375 14.5625 -22.015625 L 14.5625 -18.515625 C 14.5625 -16.179688 14.015625 -14.425781 12.921875 -13.25 C 11.828125 -12.070312 10.113281 -11.484375 7.78125 -11.484375 L 4.90625 -11.484375 L 4.90625 0 L 1.671875 0 L 1.671875 -29.125 Z M 7.78125 -14.390625 C 9 -14.390625 9.898438 -14.6875 10.484375 -15.28125 C 11.066406 -15.882812 11.359375 -16.894531 11.359375 -18.3125 L 11.359375 -22.171875 C 11.359375 -23.503906 11.097656 -24.503906 10.578125 -25.171875 C 10.066406 -25.835938 9.21875 -26.171875 8.03125 -26.171875 L 4.90625 -26.171875 L 4.90625 -14.390625 Z M 7.78125 -14.390625 "/></g></g></g><g fill="#f2a65a" fill-opacity="1"><g transform="translate(86.951946, 31.719462)"><g><path d="M 4.953125 -5.859375 L 3.828125 0 L 0.828125 0 L 6.40625 -29.125 L 11.109375 -29.125 L 16.6875 0 L 13.4375 0 L 12.3125 -5.859375 Z M 5.375 -8.65625 L 11.859375 -8.65625 L 8.578125 -25.46875 Z M 5.375 -8.65625 "/></g></g></g><g fill="#f2a65a" fill-opacity="1"><g transform="translate(104.509566, 31.719462)"><g><path d="M 1.671875 0 L 1.671875 -29.125 L 4.90625 -29.125 L 4.90625 -2.953125 L 13.234375 -2.953125 L 13.234375 0 Z M 1.671875 0 "/></g></g></g><g fill="#f2a65a" fill-opacity="1"><g transform="translate(118.530696, 31.719462)"><g><path d="M 4.953125 -5.859375 L 3.828125 0 L 0.828125 0 L 6.40625 -29.125 L 11.109375 -29.125 L 16.6875 0 L 13.4375 0 L 12.3125 -5.859375 Z M 5.375 -8.65625 L 11.859375 -8.65625 L 8.578125 -25.46875 Z M 5.375 -8.65625 "/></g></g></g><g fill="#f2a65a" fill-opacity="1"><g transform="translate(135.464113, 31.719462)"><g><path d="M 9.40625 0 L 4.953125 0 L 0.953125 -29.125 L 4.125 -29.125 L 7.53125 -4.328125 L 10.78125 -29.078125 L 13.984375 -29.078125 L 17.1875 -4.28125 L 20.46875 -29.125 L 23.296875 -29.125 L 19.34375 0 L 15.0625 0 L 12.28125 -19.765625 Z M 9.40625 0 "/></g></g></g><g fill="#f2a65a" fill-opacity="1"><g transform="translate(159.096043, 31.719462)"><g><path d="M 4.953125 -5.859375 L 3.828125 0 L 0.828125 0 L 6.40625 -29.125 L 11.109375 -29.125 L 16.6875 0 L 13.4375 0 L 12.3125 -5.859375 Z M 5.375 -8.65625 L 11.859375 -8.65625 L 8.578125 -25.46875 Z M 5.375 -8.65625 "/></g></g></g><g fill="#f2a65a" fill-opacity="1"><g transform="translate(176.653663, 31.719462)"><g><path d="M 4.53125 0 L 1.625 0 L 1.625 -29.125 L 5.734375 -29.125 L 12.484375 -8.078125 L 12.484375 -29.125 L 15.359375 -29.125 L 15.359375 0 L 11.984375 0 L 4.53125 -23.546875 Z M 4.53125 0 "/></g></g></g><g fill="#f2a65a" fill-opacity="1"><g transform="translate(193.670399, 31.719462)"><g/></g></g><g fill="#f2a65a" fill-opacity="1"><g transform="translate(200.11929, 31.719462)"><g><path d="M 5.859375 0 L 5.859375 -26.171875 L 0.5 -26.171875 L 0.5 -29.125 L 14.4375 -29.125 L 14.4375 -26.171875 L 9.078125 -26.171875 L 9.078125 0 Z M 5.859375 0 "/></g></g></g><g fill="#f2a65a" fill-opacity="1"><g transform="translate(215.097364, 31.719462)"><g><path d="M 8.15625 -29.125 C 10.457031 -29.125 12.113281 -28.554688 13.125 -27.421875 C 14.132812 -26.285156 14.640625 -24.632812 14.640625 -22.46875 L 14.640625 -20.09375 C 14.640625 -18.488281 14.347656 -17.1875 13.765625 -16.1875 C 13.191406 -15.1875 12.28125 -14.492188 11.03125 -14.109375 C 12.363281 -13.710938 13.304688 -12.992188 13.859375 -11.953125 C 14.410156 -10.921875 14.6875 -9.613281 14.6875 -8.03125 L 14.6875 -3.5 C 14.6875 -2.851562 14.710938 -2.234375 14.765625 -1.640625 C 14.828125 -1.046875 14.992188 -0.5 15.265625 0 L 11.984375 0 C 11.785156 -0.414062 11.644531 -0.863281 11.5625 -1.34375 C 11.476562 -1.832031 11.4375 -2.5625 11.4375 -3.53125 L 11.4375 -8.109375 C 11.4375 -9.742188 11.066406 -10.875 10.328125 -11.5 C 9.597656 -12.125 8.554688 -12.4375 7.203125 -12.4375 L 4.90625 -12.4375 L 4.90625 0 L 1.671875 0 L 1.671875 -29.125 Z M 7.328125 -15.390625 C 8.628906 -15.390625 9.640625 -15.660156 10.359375 -16.203125 C 11.078125 -16.742188 11.4375 -17.804688 11.4375 -19.390625 L 11.4375 -22.171875 C 11.4375 -23.503906 11.179688 -24.503906 10.671875 -25.171875 C 10.160156 -25.835938 9.296875 -26.171875 8.078125 -26.171875 L 4.90625 -26.171875 L 4.90625 -15.390625 Z M 7.328125 -15.390625 "/></g></g></g><g fill="#f2a65a" fill-opacity="1"><g transform="translate(231.489996, 31.719462)"><g><path d="M 4.953125 -5.859375 L 3.828125 0 L 0.828125 0 L 6.40625 -29.125 L 11.109375 -29.125 L 16.6875 0 L 13.4375 0 L 12.3125 -5.859375 Z M 5.375 -8.65625 L 11.859375 -8.65625 L 8.578125 -25.46875 Z M 5.375 -8.65625 "/></g></g></g><g fill="#f2a65a" fill-opacity="1"><g transform="translate(248.007278, 31.719462)"><g><path d="M 4.125 -29.125 L 8.859375 -3.78125 L 13.5625 -29.125 L 16.5625 -29.125 L 11.109375 0 L 6.328125 0 L 0.828125 -29.125 Z M 4.125 -29.125 "/></g></g></g><g fill="#f2a65a" fill-opacity="1"><g transform="translate(265.398496, 31.719462)"><g><path d="M 12.03125 -16.234375 L 12.03125 -13.3125 L 4.90625 -13.3125 L 4.90625 -2.953125 L 13.640625 -2.953125 L 13.640625 0 L 1.671875 0 L 1.671875 -29.125 L 13.640625 -29.125 L 13.640625 -26.171875 L 4.90625 -26.171875 L 4.90625 -16.234375 Z M 12.03125 -16.234375 "/></g></g></g><g fill="#f2a65a" fill-opacity="1"><g transform="translate(280.376533, 31.719462)"><g><path d="M 1.671875 0 L 1.671875 -29.125 L 4.90625 -29.125 L 4.90625 -2.953125 L 13.234375 -2.953125 L 13.234375 0 Z M 1.671875 0 "/></g></g></g><g fill="#f2a65a" fill-opacity="1"><g transform="translate(294.397674, 31.719462)"><g/></g></g><g fill="#f2a65a" fill-opacity="1"><g transform="translate(300.846566, 31.719462)"><g><path d="M 8.203125 -29.125 C 10.472656 -29.125 12.09375 -28.585938 13.0625 -27.515625 C 14.03125 -26.453125 14.515625 -24.835938 14.515625 -22.671875 L 14.515625 -21.296875 C 14.515625 -19.742188 14.265625 -18.488281 13.765625 -17.53125 C 13.273438 -16.582031 12.390625 -15.910156 11.109375 -15.515625 C 12.523438 -15.128906 13.53125 -14.394531 14.125 -13.3125 C 14.71875 -12.226562 15.015625 -10.882812 15.015625 -9.28125 L 15.015625 -6.828125 C 15.015625 -4.628906 14.472656 -2.941406 13.390625 -1.765625 C 12.316406 -0.585938 10.640625 0 8.359375 0 L 1.671875 0 L 1.671875 -29.125 Z M 7.40625 -16.765625 C 8.707031 -16.765625 9.679688 -17.023438 10.328125 -17.546875 C 10.984375 -18.078125 11.3125 -19.109375 11.3125 -20.640625 L 11.3125 -22.34375 C 11.3125 -23.644531 11.066406 -24.609375 10.578125 -25.234375 C 10.097656 -25.859375 9.273438 -26.171875 8.109375 -26.171875 L 4.90625 -26.171875 L 4.90625 -16.765625 Z M 8.359375 -2.953125 C 10.660156 -2.953125 11.8125 -4.269531 11.8125 -6.90625 L 11.8125 -9.484375 C 11.8125 -11.117188 11.484375 -12.25 10.828125 -12.875 C 10.179688 -13.5 9.148438 -13.8125 7.734375 -13.8125 L 4.90625 -13.8125 L 4.90625 -2.953125 Z M 8.359375 -2.953125 "/></g></g></g><g fill="#f2a65a" fill-opacity="1"><g transform="translate(317.155991, 31.719462)"><g><path d="M 4.75 -6.859375 C 4.75 -5.535156 5.015625 -4.503906 5.546875 -3.765625 C 6.085938 -3.023438 6.957031 -2.65625 8.15625 -2.65625 C 9.320312 -2.65625 10.175781 -3.023438 10.71875 -3.765625 C 11.257812 -4.503906 11.53125 -5.535156 11.53125 -6.859375 L 11.53125 -29.125 L 14.5625 -29.125 L 14.5625 -7.03125 C 14.5625 -4.8125 14.035156 -3.03125 12.984375 -1.6875 C 11.929688 -0.34375 10.28125 0.328125 8.03125 0.328125 C 5.8125 0.328125 4.175781 -0.34375 3.125 -1.6875 C 2.070312 -3.03125 1.546875 -4.8125 1.546875 -7.03125 L 1.546875 -29.125 L 4.75 -29.125 Z M 4.75 -6.859375 "/></g></g></g><g fill="#f2a65a" fill-opacity="1"><g transform="translate(333.257411, 31.719462)"><g><path d="M 8.484375 -29.125 C 10.765625 -29.125 12.4375 -28.476562 13.5 -27.1875 C 14.570312 -25.894531 15.109375 -24.128906 15.109375 -21.890625 L 15.109375 -7.203125 C 15.109375 -4.953125 14.570312 -3.1875 13.5 -1.90625 C 12.4375 -0.632812 10.765625 0 8.484375 0 L 1.671875 0 L 1.671875 -29.125 Z M 8.453125 -2.953125 C 9.609375 -2.953125 10.472656 -3.304688 11.046875 -4.015625 C 11.617188 -4.722656 11.90625 -5.742188 11.90625 -7.078125 L 11.90625 -22.046875 C 11.90625 -23.378906 11.617188 -24.398438 11.046875 -25.109375 C 10.472656 -25.816406 9.59375 -26.171875 8.40625 -26.171875 L 4.90625 -26.171875 L 4.90625 -2.953125 Z M 8.453125 -2.953125 "/></g></g></g><g fill="#f2a65a" fill-opacity="1"><g transform="translate(349.733276, 31.719462)"><g><path d="M 8.484375 -29.125 C 10.765625 -29.125 12.4375 -28.476562 13.5 -27.1875 C 14.570312 -25.894531 15.109375 -24.128906 15.109375 -21.890625 L 15.109375 -7.203125 C 15.109375 -4.953125 14.570312 -3.1875 13.5 -1.90625 C 12.4375 -0.632812 10.765625 0 8.484375 0 L 1.671875 0 L 1.671875 -29.125 Z M 8.453125 -2.953125 C 9.609375 -2.953125 10.472656 -3.304688 11.046875 -4.015625 C 11.617188 -4.722656 11.90625 -5.742188 11.90625 -7.078125 L 11.90625 -22.046875 C 11.90625 -23.378906 11.617188 -24.398438 11.046875 -25.109375 C 10.472656 -25.816406 9.59375 -26.171875 8.40625 -26.171875 L 4.90625 -26.171875 L 4.90625 -2.953125 Z M 8.453125 -2.953125 "/></g></g></g><g fill="#f2a65a" fill-opacity="1"><g transform="translate(365.58495, 31.719462)"><g><path d="M 6.828125 -10.4375 L 0.671875 -29.125 L 4.03125 -29.125 L 8.578125 -14.8125 L 13.15625 -29.125 L 16.234375 -29.125 L 10.03125 -10.4375 L 10.03125 0 L 6.828125 0 Z M 6.828125 -10.4375 "/></g></g></g><g fill="#f2a65a" fill-opacity="1"><g transform="translate(379.147791, 31.719462)"><g><path d="M 4.78125 -4.03125 L 4.78125 0 L 1.671875 0 L 1.671875 -4.03125 Z M 4.78125 -4.03125 "/></g></g></g></g></g><g fill="#ffffff" fill-opacity="1"><g transform="translate(351.661843, 206.790387)"><g/></g></g><g fill="#ffffff" fill-opacity="1"><g transform="translate(385.325189, 206.790387)"><g/></g></g><g fill="#ffffff" fill-opacity="1"><g transform="translate(418.988536, 206.790387)"><g/></g></g><g fill="#ffffff" fill-opacity="1"><g transform="translate(452.654399, 206.790387)"><g><path d="M 62.765625 -84.703125 L 62.765625 -69.5 L 25.625 -69.5 L 25.625 -15.421875 L 71.25 -15.421875 L 71.25 0 L 8.6875 0 L 8.6875 -152.046875 L 71.25 -152.046875 L 71.25 -136.625 L 25.625 -136.625 L 25.625 -84.703125 Z M 62.765625 -84.703125 "/></g></g></g><g fill="#ffffff" fill-opacity="1"><g transform="translate(530.840218, 206.790387)"><g><path d="M 25.84375 -30.625 L 19.984375 0 L 4.34375 0 L 33.453125 -152.046875 L 58 -152.046875 L 87.09375 0 L 70.15625 0 L 64.296875 -30.625 Z M 28.015625 -45.171875 L 61.90625 -45.171875 L 44.75 -132.921875 Z M 28.015625 -45.171875 "/></g></g></g><g fill="#ffffff" fill-opacity="1"><g transform="translate(622.274192, 206.790387)"><g><path d="M 41.484375 -153.5625 C 53.210938 -153.5625 61.863281 -150.085938 67.4375 -143.140625 C 73.007812 -136.191406 75.796875 -126.921875 75.796875 -115.328125 L 75.796875 -101.65625 L 59.734375 -101.65625 L 59.734375 -116.203125 C 59.734375 -123.148438 58.320312 -128.539062 55.5 -132.375 C 52.675781 -136.21875 48.148438 -138.140625 41.921875 -138.140625 C 35.835938 -138.140625 31.347656 -136.21875 28.453125 -132.375 C 25.554688 -128.539062 24.109375 -123.148438 24.109375 -116.203125 L 24.109375 -35.84375 C 24.109375 -28.882812 25.554688 -23.488281 28.453125 -19.65625 C 31.347656 -15.820312 35.835938 -13.90625 41.921875 -13.90625 C 48.148438 -13.90625 52.675781 -15.820312 55.5 -19.65625 C 58.320312 -23.488281 59.734375 -28.882812 59.734375 -35.84375 L 59.734375 -55.609375 L 75.796875 -55.609375 L 75.796875 -36.703125 C 75.796875 -25.117188 73.007812 -15.851562 67.4375 -8.90625 C 61.863281 -1.957031 53.210938 1.515625 41.484375 1.515625 C 29.898438 1.515625 21.320312 -1.957031 15.75 -8.90625 C 10.175781 -15.851562 7.390625 -25.117188 7.390625 -36.703125 L 7.390625 -115.328125 C 7.390625 -121.117188 8.078125 -126.367188 9.453125 -131.078125 C 10.828125 -135.785156 12.925781 -139.800781 15.75 -143.125 C 18.570312 -146.457031 22.117188 -149.03125 26.390625 -150.84375 C 30.660156 -152.65625 35.691406 -153.5625 41.484375 -153.5625 Z M 41.484375 -153.5625 "/></g></g></g><g fill="#ffffff" fill-opacity="1"><g transform="translate(704.803681, 206.790387)"><g><path d="M 25.625 -68.421875 L 25.625 0 L 8.6875 0 L 8.6875 -152.046875 L 25.625 -152.046875 L 25.625 -83.625 L 62.984375 -83.625 L 62.984375 -152.046875 L 79.9375 -152.046875 L 79.9375 0 L 62.984375 0 L 62.984375 -68.421875 Z M 25.625 -68.421875 "/></g></g></g><g fill="#ffffff" fill-opacity="1"><g transform="translate(793.414306, 206.790387)"><g><path d="M 62.765625 -84.703125 L 62.765625 -69.5 L 25.625 -69.5 L 25.625 -15.421875 L 71.25 -15.421875 L 71.25 0 L 8.6875 0 L 8.6875 -152.046875 L 71.25 -152.046875 L 71.25 -136.625 L 25.625 -136.625 L 25.625 -84.703125 Z M 62.765625 -84.703125 "/></g></g></g><g fill="#ffffff" fill-opacity="1"><g transform="translate(871.600108, 206.790387)"><g><path d="M 40.609375 -153.5625 C 52.203125 -153.5625 60.75 -150.117188 66.25 -143.234375 C 71.75 -136.359375 74.5 -127.128906 74.5 -115.546875 L 74.5 -111.421875 L 58.421875 -111.421875 L 58.421875 -116.421875 C 58.421875 -123.367188 57.046875 -128.722656 54.296875 -132.484375 C 51.546875 -136.253906 47.128906 -138.140625 41.046875 -138.140625 C 34.960938 -138.140625 30.546875 -136.253906 27.796875 -132.484375 C 25.046875 -128.722656 23.671875 -123.441406 23.671875 -116.640625 C 23.671875 -110.992188 24.9375 -106.066406 27.46875 -101.859375 C 30.007812 -97.660156 33.160156 -93.785156 36.921875 -90.234375 C 40.691406 -86.691406 44.785156 -83.21875 49.203125 -79.8125 C 53.617188 -76.414062 57.707031 -72.6875 61.46875 -68.625 C 65.226562 -64.570312 68.375 -59.976562 70.90625 -54.84375 C 73.445312 -49.707031 74.71875 -43.585938 74.71875 -36.484375 C 74.71875 -24.898438 71.929688 -15.671875 66.359375 -8.796875 C 60.785156 -1.921875 52.132812 1.515625 40.40625 1.515625 C 28.675781 1.515625 20.054688 -1.921875 14.546875 -8.796875 C 9.046875 -15.671875 6.296875 -24.898438 6.296875 -36.484375 L 6.296875 -45.171875 L 22.15625 -45.171875 L 22.15625 -35.625 C 22.15625 -28.675781 23.601562 -23.316406 26.5 -19.546875 C 29.394531 -15.785156 33.882812 -13.90625 39.96875 -13.90625 C 46.050781 -13.90625 50.539062 -15.785156 53.4375 -19.546875 C 56.332031 -23.316406 57.78125 -28.675781 57.78125 -35.625 C 57.78125 -41.269531 56.507812 -46.15625 53.96875 -50.28125 C 51.4375 -54.40625 48.285156 -58.238281 44.515625 -61.78125 C 40.753906 -65.332031 36.703125 -68.8125 32.359375 -72.21875 C 28.015625 -75.625 23.957031 -79.351562 20.1875 -83.40625 C 16.425781 -87.457031 13.28125 -92.050781 10.75 -97.1875 C 8.21875 -102.332031 6.953125 -108.453125 6.953125 -115.546875 C 6.953125 -127.273438 9.703125 -136.539062 15.203125 -143.34375 C 20.703125 -150.15625 29.171875 -153.5625 40.609375 -153.5625 Z M 40.609375 -153.5625 "/></g></g></g><g fill="#e05454" fill-opacity="1"><g transform="translate(351.661843, 359.913569)"><g><path d="M 1.546875 -135.859375 L 67.546875 -135.859375 L 67.546875 -116.453125 L 45.21875 -116.453125 L 45.21875 0 L 23.875 0 L 23.875 -116.453125 L 1.546875 -116.453125 Z M 1.546875 -135.859375 "/></g></g></g><g fill="#e05454" fill-opacity="1"><g transform="translate(420.749415, 359.913569)"><g><path d="M 52.40625 0 C 52.144531 -0.90625 51.882812 -1.742188 51.625 -2.515625 C 51.363281 -3.296875 51.132812 -4.269531 50.9375 -5.4375 C 50.75 -6.601562 50.617188 -8.085938 50.546875 -9.890625 C 50.484375 -11.703125 50.453125 -13.96875 50.453125 -16.6875 L 50.453125 -38.046875 C 50.453125 -44.378906 49.351562 -48.835938 47.15625 -51.421875 C 44.957031 -54.015625 41.398438 -55.3125 36.484375 -55.3125 L 29.109375 -55.3125 L 29.109375 0 L 7.765625 0 L 7.765625 -135.859375 L 39.984375 -135.859375 C 51.109375 -135.859375 59.160156 -133.269531 64.140625 -128.09375 C 69.117188 -122.914062 71.609375 -115.085938 71.609375 -104.609375 L 71.609375 -93.9375 C 71.609375 -79.957031 66.953125 -70.769531 57.640625 -66.375 C 63.078125 -64.175781 66.796875 -60.582031 68.796875 -55.59375 C 70.804688 -50.613281 71.8125 -44.566406 71.8125 -37.453125 L 71.8125 -16.5 C 71.8125 -13.132812 71.9375 -10.1875 72.1875 -7.65625 C 72.445312 -5.132812 73.097656 -2.582031 74.140625 0 Z M 29.109375 -116.453125 L 29.109375 -74.71875 L 37.453125 -74.71875 C 41.460938 -74.71875 44.597656 -75.753906 46.859375 -77.828125 C 49.128906 -79.898438 50.265625 -83.648438 50.265625 -89.078125 L 50.265625 -102.46875 C 50.265625 -107.382812 49.390625 -110.941406 47.640625 -113.140625 C 45.898438 -115.347656 43.148438 -116.453125 39.390625 -116.453125 Z M 29.109375 -116.453125 "/></g></g></g><g fill="#e05454" fill-opacity="1"><g transform="translate(498.764029, 359.913569)"><g><path d="M 76.859375 0 L 55.3125 0 L 51.625 -24.640625 L 25.421875 -24.640625 L 21.734375 0 L 2.140625 0 L 23.875 -135.859375 L 55.125 -135.859375 Z M 28.140625 -43.078125 L 48.71875 -43.078125 L 38.421875 -111.78125 Z M 28.140625 -43.078125 "/></g></g></g><g fill="#e05454" fill-opacity="1"><g transform="translate(572.897019, 359.913569)"><g><path d="M 39.984375 -25.03125 L 56.28125 -135.859375 L 75.890625 -135.859375 L 54.921875 0 L 23.09375 0 L 2.140625 -135.859375 L 23.671875 -135.859375 Z M 39.984375 -25.03125 "/></g></g></g><g fill="#e05454" fill-opacity="1"><g transform="translate(650.911617, 359.913569)"><g><path d="M 29.109375 -78.609375 L 58.421875 -78.609375 L 58.421875 -59.1875 L 29.109375 -59.1875 L 29.109375 -19.40625 L 65.984375 -19.40625 L 65.984375 0 L 7.765625 0 L 7.765625 -135.859375 L 65.984375 -135.859375 L 65.984375 -116.453125 L 29.109375 -116.453125 Z M 29.109375 -78.609375 "/></g></g></g><g fill="#e05454" fill-opacity="1"><g transform="translate(722.327995, 359.913569)"><g><path d="M 7.765625 -135.859375 L 29.109375 -135.859375 L 29.109375 -19.40625 L 64.234375 -19.40625 L 64.234375 0 L 7.765625 0 Z M 7.765625 -135.859375 "/></g></g></g><g fill="#e05454" fill-opacity="1"><g transform="translate(788.116432, 359.913569)"><g/></g></g><g fill="#e05454" fill-opacity="1"><g transform="translate(818.196696, 359.913569)"><g><path d="M 7.765625 -135.859375 L 29.109375 -135.859375 L 29.109375 0 L 7.765625 0 Z M 7.765625 -135.859375 "/></g></g></g><g fill="#e05454" fill-opacity="1"><g transform="translate(855.069255, 359.913569)"><g><path d="M 26.78125 -98.390625 L 26.78125 0 L 7.5625 0 L 7.5625 -135.859375 L 34.359375 -135.859375 L 56.28125 -54.53125 L 56.28125 -135.859375 L 75.296875 -135.859375 L 75.296875 0 L 53.375 0 Z M 26.78125 -98.390625 "/></g></g></g><g fill="#e05454" fill-opacity="1"><g transform="translate(937.93551, 359.913569)"><g><path d="M 69.671875 -50.65625 L 69.671875 -32.609375 C 69.671875 -21.609375 66.984375 -13.164062 61.609375 -7.28125 C 56.242188 -1.394531 48.320312 1.546875 37.84375 1.546875 C 27.363281 1.546875 19.4375 -1.394531 14.0625 -7.28125 C 8.695312 -13.164062 6.015625 -21.609375 6.015625 -32.609375 L 6.015625 -103.25 C 6.015625 -114.25 8.695312 -122.691406 14.0625 -128.578125 C 19.4375 -134.460938 27.363281 -137.40625 37.84375 -137.40625 C 48.320312 -137.40625 56.242188 -134.460938 61.609375 -128.578125 C 66.984375 -122.691406 69.671875 -114.25 69.671875 -103.25 L 69.671875 -90.046875 L 49.484375 -90.046875 L 49.484375 -104.609375 C 49.484375 -109.523438 48.476562 -112.984375 46.46875 -114.984375 C 44.46875 -116.992188 41.785156 -118 38.421875 -118 C 35.054688 -118 32.367188 -116.992188 30.359375 -114.984375 C 28.359375 -112.984375 27.359375 -109.523438 27.359375 -104.609375 L 27.359375 -31.25 C 27.359375 -26.332031 28.359375 -22.898438 30.359375 -20.953125 C 32.367188 -19.015625 35.054688 -18.046875 38.421875 -18.046875 C 41.785156 -18.046875 44.46875 -19.015625 46.46875 -20.953125 C 48.476562 -22.898438 49.484375 -26.332031 49.484375 -31.25 L 49.484375 -50.65625 Z M 69.671875 -50.65625 "/></g></g></g><g fill="#e05454" fill-opacity="1"><g transform="translate(1011.680629, 359.913569)"><g><path d="M 28.328125 -20.578125 L 28.328125 0 L 7.765625 0 L 7.765625 -20.578125 Z M 28.328125 -20.578125 "/></g></g></g><g fill="#ffffff" fill-opacity="1"><g transform="translate(339.945945, 209.380207)"><g><path d="M 58.140625 -206.59375 C 74.273438 -206.59375 85.785156 -202.804688 92.671875 -195.234375 C 99.554688 -187.660156 103 -176.203125 103 -160.859375 L 103 -151.109375 C 103 -140.085938 101.226562 -131.179688 97.6875 -124.390625 C 94.144531 -117.609375 87.847656 -112.84375 78.796875 -110.09375 C 88.835938 -107.332031 95.972656 -102.113281 100.203125 -94.4375 C 104.429688 -86.769531 106.546875 -77.226562 106.546875 -65.8125 L 106.546875 -48.40625 C 106.546875 -32.863281 102.707031 -20.910156 95.03125 -12.546875 C 87.363281 -4.179688 75.460938 0 59.328125 0 L 11.8125 0 L 11.8125 -206.59375 Z M 52.53125 -118.9375 C 61.78125 -118.9375 68.71875 -120.804688 73.34375 -124.546875 C 77.96875 -128.285156 80.28125 -135.566406 80.28125 -146.390625 L 80.28125 -158.484375 C 80.28125 -167.734375 78.554688 -174.570312 75.109375 -179 C 71.671875 -183.425781 65.816406 -185.640625 57.546875 -185.640625 L 34.828125 -185.640625 L 34.828125 -118.9375 Z M 59.328125 -20.953125 C 75.648438 -20.953125 83.8125 -30.300781 83.8125 -49 L 83.8125 -67.296875 C 83.8125 -78.898438 81.5 -86.914062 76.875 -91.34375 C 72.257812 -95.769531 64.929688 -97.984375 54.890625 -97.984375 L 34.828125 -97.984375 L 34.828125 -20.953125 Z M 59.328125 -20.953125 "/></g></g></g><g clip-path="url(#307365a6ed)"><path fill="#c13383" d="M 258.625 7.199219 C 256.476562 8.734375 254.789062 9.347656 254.789062 8.425781 C 254.789062 5.355469 252.179688 6.738281 250.492188 10.726562 C 249.417969 12.875 248.035156 14.257812 247.269531 13.796875 C 246.5 13.335938 245.425781 14.566406 244.964844 16.714844 C 244.351562 18.863281 242.972656 20.550781 241.742188 20.550781 C 239.289062 20.550781 238.980469 21.316406 239.441406 30.679688 L 239.59375 37.125 L 232.074219 29.757812 C 222.253906 20.242188 211.820312 16.558594 201.382812 18.863281 C 191.101562 21.011719 178.058594 26.996094 181.585938 27.761719 C 184.351562 28.53125 184.351562 28.53125 181.585938 30.832031 C 178.980469 32.828125 179.132812 32.980469 183.277344 32.058594 C 187.417969 31.136719 187.574219 31.292969 185.578125 33.746094 C 183.582031 36.203125 183.734375 36.355469 186.5 35.28125 C 190.179688 33.902344 201.078125 32.367188 198.46875 33.746094 C 195.246094 35.128906 196.167969 37.738281 199.542969 36.816406 C 201.230469 36.355469 204.144531 35.433594 205.988281 34.976562 C 208.597656 34.207031 209.058594 34.515625 208.136719 36.664062 C 207.523438 38.65625 207.828125 39.117188 209.515625 38.351562 C 210.746094 37.890625 212.894531 36.96875 214.121094 36.507812 C 215.65625 35.894531 216.117188 36.203125 215.65625 37.738281 C 215.042969 39.117188 216.730469 40.5 220.566406 41.878906 C 223.789062 43.109375 227.777344 44.949219 229.464844 46.332031 L 232.535156 48.480469 L 229.464844 47.40625 C 227.777344 46.636719 220.875 45.871094 213.96875 45.410156 C 198.007812 44.644531 189.105469 48.171875 178.058594 59.679688 C 169.925781 68.429688 167.621094 73.492188 174.375 68.273438 C 178.671875 64.898438 182.046875 63.976562 180.359375 66.585938 C 178.824219 69.042969 181.128906 68.429688 186.957031 64.746094 C 191.5625 61.984375 192.328125 61.828125 191.410156 63.976562 C 190.027344 67.660156 192.484375 67.199219 197.699219 62.75 C 202.152344 59.066406 202.304688 59.066406 201.539062 62.136719 C 200.617188 65.207031 200.769531 65.359375 205.375 62.902344 C 211.050781 59.988281 213.507812 59.835938 212.585938 62.289062 C 211.972656 63.824219 214.121094 64.132812 220.566406 63.976562 L 229.464844 63.519531 L 221.332031 65.820312 C 207.523438 69.65625 198.160156 74.414062 193.25 80.089844 C 187.878906 86.230469 180.511719 100.808594 182.507812 101.574219 C 183.121094 101.730469 183.429688 103.878906 183.121094 106.179688 C 182.507812 109.402344 182.816406 109.863281 184.042969 108.019531 C 185.425781 106.179688 185.730469 106.640625 185.730469 110.324219 C 185.730469 112.777344 186.5 116 187.265625 117.230469 C 188.339844 118.917969 188.800781 118.304688 188.953125 114.160156 C 189.261719 109.554688 189.414062 109.402344 189.875 112.933594 C 190.488281 117.230469 193.402344 119.070312 193.402344 115.082031 C 193.402344 112.625 204.300781 97.277344 206.292969 97.277344 C 206.910156 97.277344 208.902344 95.589844 210.589844 93.289062 C 212.28125 91.140625 213.96875 89.757812 214.273438 90.066406 C 214.582031 90.375 213.8125 95.589844 212.585938 101.574219 C 210.132812 113.238281 210.746094 122.90625 214.273438 127.511719 C 216.117188 129.964844 216.269531 129.964844 216.421875 125.976562 C 216.421875 123.675781 217.191406 121.832031 217.957031 121.832031 C 218.878906 121.832031 219.492188 119.683594 219.492188 117.230469 C 219.492188 114.621094 220.257812 112.625 221.027344 112.625 C 221.949219 112.625 222.5625 111.242188 222.5625 109.554688 C 222.5625 106.179688 225.015625 105.414062 226.089844 108.328125 C 226.550781 109.402344 227.777344 107.867188 228.851562 105.105469 C 230.386719 100.5 230.847656 100.195312 231.769531 102.648438 C 232.6875 105.257812 233.148438 104.796875 234.835938 100.042969 C 236.066406 96.820312 237.445312 94.976562 238.058594 95.898438 C 238.519531 96.820312 240.515625 95.285156 242.511719 91.90625 C 244.351562 88.839844 246.652344 86.691406 247.726562 86.996094 C 248.648438 87.304688 250.335938 92.980469 251.410156 99.734375 C 257.394531 137.332031 264.300781 162.5 279.339844 200.402344 L 282.257812 207.769531 L 274.277344 207.769531 C 269.828125 207.769531 264.300781 208.84375 261.847656 210.070312 C 259.542969 211.300781 257.242188 212.375 256.78125 212.375 C 254.941406 212.375 265.683594 200.558594 269.367188 198.5625 L 273.355469 196.414062 L 269.980469 195.1875 C 265.375 193.496094 252.332031 197.792969 249.417969 202.089844 C 248.1875 203.78125 246.808594 204.855469 246.347656 204.546875 C 245.273438 203.472656 250.183594 190.734375 252.945312 187.359375 C 255.09375 185.058594 254.941406 184.75 252.484375 184.75 C 249.261719 184.75 237.90625 192.117188 237.90625 194.113281 C 237.90625 194.878906 236.832031 195.492188 235.453125 195.492188 C 233.457031 195.492188 233.148438 196.71875 233.609375 201.632812 C 233.917969 205.007812 233.761719 207.769531 233.304688 207.769531 C 232.84375 207.617188 230.082031 205.621094 227.164062 203.164062 C 223.175781 199.636719 220.414062 198.5625 215.195312 198.5625 C 211.511719 198.5625 208.902344 199.023438 209.210938 199.636719 C 209.671875 200.402344 206.910156 200.558594 203.226562 200.25 C 199.542969 200.097656 194.476562 200.558594 191.871094 201.324219 C 189.414062 202.246094 187.265625 202.550781 187.265625 202.089844 C 187.265625 200.558594 199.695312 190.273438 204.761719 187.511719 L 209.515625 185.058594 L 203.992188 183.984375 C 196.933594 182.601562 189.261719 185.824219 182.96875 192.578125 L 178.210938 197.792969 L 180.359375 189.660156 C 181.433594 185.210938 183.277344 180.453125 184.195312 179.226562 C 185.730469 177.691406 185.730469 177.078125 184.351562 177.078125 C 180.207031 177.078125 173.453125 181.988281 172.535156 185.519531 C 171.152344 191.195312 169.3125 190.121094 168.082031 183.214844 C 166.089844 171.554688 160.257812 178.917969 161.636719 191.195312 L 162.558594 198.714844 L 158.414062 195.800781 C 152.429688 191.503906 147.980469 190.429688 140.308594 191.65625 C 132.328125 192.730469 131.714844 194.417969 138.160156 197.335938 C 140.765625 198.410156 142.761719 199.789062 142.761719 200.402344 C 142.761719 201.015625 144.910156 201.632812 147.671875 201.9375 C 155.652344 202.707031 154.117188 205.46875 144.605469 207.460938 C 135.703125 209.304688 127.722656 215.289062 125.421875 222.042969 C 124.5 224.34375 125.113281 224.34375 130.640625 221.425781 C 134.167969 219.738281 140.152344 218.050781 144.144531 217.589844 C 147.980469 217.285156 152.738281 216.671875 154.578125 216.210938 C 156.421875 215.75 158.261719 216.054688 158.722656 216.824219 C 159.183594 217.589844 156.878906 218.511719 153.503906 219.125 C 146.90625 220.199219 135.089844 229.867188 135.089844 234.316406 C 135.089844 238 136.011719 237.695312 143.222656 231.554688 C 150.28125 225.417969 152.429688 225.570312 147.519531 231.710938 C 142.300781 238.308594 140.765625 246.59375 143.375 253.039062 C 144.605469 255.957031 145.984375 258.410156 146.445312 258.410156 C 146.90625 258.410156 148.132812 255.496094 148.902344 251.8125 C 149.820312 248.28125 152.738281 242.910156 155.191406 239.996094 L 159.796875 234.625 L 158.875 239.382812 C 158.414062 241.992188 158.722656 246.132812 159.796875 248.589844 L 161.636719 253.039062 L 163.019531 247.820312 C 164.398438 243.066406 172.6875 229.253906 174.222656 229.253906 C 174.527344 229.253906 175.601562 232.167969 176.523438 235.699219 C 182.660156 259.792969 187.265625 272.527344 197.855469 295.085938 C 210.746094 321.941406 221.949219 352.019531 220.566406 355.703125 C 218.726562 360.613281 201.230469 364.449219 174.222656 365.984375 C 134.476562 368.289062 129.566406 369.363281 108.234375 380.410156 C 92.429688 388.542969 87.976562 390.078125 76.621094 391.613281 C 69.410156 392.6875 59.433594 394.988281 54.371094 396.832031 C 47.3125 399.285156 39.636719 400.359375 20.300781 401.28125 C -1.796875 402.355469 -6.398438 403.121094 -18.0625 407.113281 C -30.1875 411.257812 -34.023438 411.871094 -60.570312 413.097656 C -86.351562 414.324219 -91.109375 414.9375 -101.238281 418.621094 C -115.664062 423.839844 -155.40625 427.984375 -205.589844 429.363281 C -226.152344 429.976562 -248.558594 431.664062 -260.835938 433.355469 C -287.691406 437.191406 -326.207031 440.875 -354.90625 442.101562 C -367.335938 442.5625 -377.003906 443.636719 -376.390625 444.25 C -374.855469 445.785156 -286.460938 448.394531 -179.5 450.234375 C -72.695312 452.074219 -31.261719 454.53125 61.429688 464.964844 C 118.210938 471.257812 145.21875 476.9375 167.316406 487.21875 C 180.359375 493.203125 185.730469 498.421875 185.730469 504.867188 C 185.730469 513.304688 175.601562 519.90625 143.683594 532.179688 C 123.121094 540.160156 119.285156 542.003906 105.472656 551.058594 C 89.359375 561.644531 82.761719 564.40625 51.453125 574.230469 C 35.496094 579.292969 15.699219 586.199219 7.566406 589.574219 C -4.710938 594.640625 -14.074219 596.941406 -45.378906 602.773438 C -66.402344 606.609375 -97.402344 613.207031 -114.28125 617.351562 C -147.734375 625.636719 -169.066406 629.78125 -219.402344 638.222656 C -255.15625 644.207031 -266.050781 646.355469 -284.160156 651.417969 C -301.808594 656.328125 -301.195312 659.859375 -282.011719 664.15625 C -263.441406 668.453125 -229.066406 669.679688 -122.722656 669.679688 C -19.289062 669.679688 -1.640625 670.140625 63.730469 675.050781 C 99.027344 677.8125 113.453125 679.195312 149.667969 683.953125 C 187.113281 688.710938 240.824219 688.710938 258.46875 683.800781 C 276.578125 678.734375 291.464844 670.910156 301.132812 661.546875 C 314.328125 648.503906 319.238281 635.613281 322.308594 605.226562 C 323.691406 590.1875 324.457031 588.039062 331.976562 573.769531 L 339.957031 558.421875 L 339.957031 315.957031 L 334.433594 315.496094 L 328.90625 315.039062 L 326.300781 302.453125 C 319.855469 271.761719 302.972656 220.660156 286.398438 181.835938 C 272.589844 149.609375 263.535156 119.070312 260.160156 92.980469 C 258.929688 83.160156 260.464844 82.699219 267.984375 90.679688 C 271.515625 94.671875 273.050781 95.4375 272.28125 93.441406 C 271.667969 91.449219 272.894531 92.214844 276.117188 95.746094 C 278.726562 98.660156 280.875 100.195312 280.875 98.96875 C 280.875 96.359375 288.546875 104.183594 288.546875 106.792969 C 288.546875 107.867188 289.621094 107.253906 290.851562 105.566406 C 293 102.804688 293 102.804688 293.152344 106.792969 C 293.152344 111.242188 295.300781 112.472656 296.835938 109.09375 C 297.296875 108.175781 297.449219 109.25 296.988281 111.703125 C 296.222656 115.082031 296.527344 115.847656 298.371094 115.234375 C 300.671875 114.3125 302.359375 117.074219 302.359375 121.984375 C 302.359375 127.355469 305.277344 124.902344 305.734375 119.070312 C 306.351562 110.9375 302.820312 96.203125 298.214844 88.070312 L 294.226562 81.164062 L 299.597656 86.078125 C 305.582031 91.90625 307.730469 92.523438 306.503906 88.070312 C 306.042969 86.382812 306.351562 85.003906 307.117188 85.003906 C 307.882812 85.003906 308.5 85.617188 308.5 86.382812 C 308.5 87.152344 310.1875 89.300781 312.335938 91.292969 C 314.328125 93.289062 316.171875 95.898438 316.171875 96.820312 C 316.171875 97.894531 316.785156 98.8125 317.550781 98.8125 C 318.320312 98.8125 319.238281 97.894531 319.699219 96.820312 C 320.007812 95.898438 321.082031 97.433594 321.847656 100.347656 C 323.230469 104.644531 323.691406 105.257812 324.609375 102.957031 C 325.683594 100.347656 325.839844 100.347656 327.832031 102.957031 C 329.675781 105.566406 329.828125 105.414062 329.980469 102.191406 C 330.136719 92.367188 318.167969 77.023438 305.429688 70.421875 C 300.058594 67.660156 284.558594 63.519531 279.800781 63.519531 C 279.496094 63.519531 279.339844 62.902344 279.339844 62.136719 C 279.339844 61.523438 285.171875 61.0625 292.386719 61.0625 C 299.597656 61.214844 305.429688 60.753906 305.429688 60.140625 C 305.429688 58.914062 303.28125 56.917969 294.6875 49.859375 L 290.851562 46.792969 L 297.757812 46.636719 C 301.898438 46.636719 306.195312 47.710938 308.5 49.246094 C 311.875 51.703125 312.027344 51.703125 311.105469 49.09375 C 310.1875 46.792969 310.648438 46.484375 313.410156 47.097656 C 315.402344 47.40625 318.167969 48.324219 319.699219 48.941406 C 321.847656 49.859375 322.15625 49.554688 321.234375 47.25 C 320.3125 44.488281 320.3125 44.488281 323.382812 46.945312 C 326.757812 50.015625 329.214844 50.628906 327.527344 48.019531 C 326.914062 46.792969 327.679688 46.636719 330.136719 47.25 C 336.273438 48.941406 321.695312 36.664062 312.179688 31.90625 C 300.210938 26.074219 288.089844 27.300781 272.28125 35.742188 C 265.988281 39.117188 260.925781 41.421875 260.925781 40.804688 C 260.925781 40.191406 262.765625 36.96875 264.761719 33.59375 C 269.519531 26.074219 269.519531 25.460938 265.222656 24.847656 C 262.152344 24.386719 262.613281 23.773438 268.90625 19.167969 C 272.894531 16.253906 275.8125 13.335938 275.351562 12.570312 C 274.890625 11.957031 275.65625 10.882812 277.039062 10.421875 C 279.035156 9.5 279.1875 9.195312 277.5 8.121094 C 275.964844 7.046875 276.117188 6.738281 278.113281 6.738281 C 279.496094 6.738281 281.183594 6.125 281.644531 5.203125 C 283.484375 2.289062 262.921875 4.128906 258.625 7.199219 Z M 214.273438 209.304688 C 214.734375 209.304688 214.582031 208.535156 214.121094 207.769531 C 213.660156 206.847656 213.96875 206.234375 214.734375 206.234375 C 215.65625 206.234375 216.421875 206.847656 216.421875 207.769531 C 216.421875 208.535156 217.496094 209.304688 218.878906 209.304688 C 220.257812 209.304688 223.023438 210.683594 225.171875 212.375 C 229.621094 215.902344 228.699219 216.210938 221.640625 213.601562 C 217.804688 212.21875 215.195312 212.375 209.363281 214.0625 C 205.21875 215.136719 201.230469 215.902344 200.617188 215.75 C 199.847656 215.597656 197.242188 215.136719 194.785156 214.828125 C 192.175781 214.523438 189.875 213.90625 189.414062 213.601562 C 188.339844 212.375 202.613281 209.152344 204.300781 210.070312 C 205.066406 210.683594 205.679688 210.53125 205.527344 209.765625 C 205.066406 206.847656 205.835938 206.386719 209.671875 207.769531 C 211.820312 208.691406 213.96875 209.304688 214.273438 209.304688 Z M 285.480469 215.902344 C 285.480469 216.054688 286.09375 218.359375 286.859375 221.121094 L 288.242188 225.878906 L 281.183594 222.808594 C 272.894531 219.277344 268.90625 216.054688 274.429688 217.4375 C 276.273438 217.898438 277.804688 217.589844 277.804688 216.824219 C 277.804688 216.054688 279.496094 215.441406 281.644531 215.441406 C 283.792969 215.441406 285.480469 215.597656 285.480469 215.902344 Z M 271.207031 220.96875 C 270.746094 221.425781 269.367188 221.582031 268.292969 221.121094 C 267.0625 220.660156 267.523438 220.199219 269.210938 220.199219 C 270.902344 220.046875 271.820312 220.507812 271.207031 220.96875 Z M 210.589844 233.242188 C 206.140625 237.078125 201.84375 241.683594 200.921875 243.21875 C 198.773438 247.515625 197.394531 259.945312 199.542969 256.875 C 200.769531 254.882812 201.230469 255.1875 201.996094 257.949219 C 203.378906 262.859375 204.761719 262.402344 206.910156 256.414062 C 209.210938 250.125 216.421875 241.53125 216.421875 245.058594 C 216.421875 246.59375 215.960938 247.667969 215.347656 247.667969 C 214.582031 247.667969 213.96875 250.890625 213.8125 255.035156 L 213.507812 262.246094 L 221.179688 253.347656 L 220.257812 258.71875 C 219.644531 261.941406 220.105469 266.082031 221.332031 269.304688 L 223.480469 274.523438 L 225.324219 267.15625 C 226.398438 263.015625 227.933594 260.097656 229.007812 260.40625 C 230.082031 260.558594 231.15625 259.179688 231.460938 257.183594 C 231.769531 255.339844 232.84375 253.808594 233.917969 253.808594 C 235.144531 253.808594 236.832031 251.660156 237.90625 249.203125 C 240.363281 243.523438 243.738281 243.21875 244.964844 248.742188 C 248.496094 265.316406 254.789062 283.269531 263.226562 301.53125 C 268.753906 313.347656 273.203125 323.785156 273.203125 324.859375 C 273.203125 325.933594 269.210938 329.15625 264.457031 331.917969 C 259.542969 334.832031 251.566406 339.898438 246.652344 343.121094 C 241.742188 346.34375 236.984375 348.953125 236.21875 348.953125 C 235.453125 348.953125 229.3125 337.75 222.40625 324.089844 C 215.65625 310.585938 206.910156 294.320312 203.226562 288.183594 C 199.542969 282.042969 194.324219 271.914062 191.871094 265.625 C 186.652344 252.425781 180.207031 229.714844 181.433594 228.332031 C 181.894531 228.027344 186.039062 229.253906 190.488281 231.402344 C 195.09375 233.398438 199.082031 234.472656 199.234375 233.703125 C 199.542969 232.9375 200.769531 232.324219 201.996094 232.324219 C 203.378906 232.324219 203.839844 233.089844 203.226562 234.164062 C 202.613281 235.238281 202.765625 235.390625 203.839844 234.777344 C 204.914062 234.164062 205.679688 232.9375 205.679688 232.015625 C 205.679688 229.40625 210.589844 226.339844 214.886719 226.183594 C 218.265625 226.183594 217.804688 226.953125 210.589844 233.242188 Z M 277.039062 230.789062 C 276.578125 231.554688 276.730469 232.324219 277.652344 232.324219 C 278.421875 232.324219 279.496094 231.710938 280.109375 230.941406 C 280.570312 230.019531 282.71875 230.019531 285.480469 231.09375 C 288.855469 232.167969 290.390625 234.011719 291.617188 238.152344 C 295.761719 253.808594 305.429688 307.210938 305.429688 314.730469 C 305.429688 317.339844 304.507812 318.261719 301.898438 318.261719 C 299.90625 318.261719 294.992188 319.179688 291.003906 320.410156 L 283.792969 322.558594 L 280.570312 316.265625 C 278.878906 312.734375 274.277344 304.601562 270.441406 298.308594 C 259.542969 280.203125 250.183594 257.183594 250.183594 247.976562 C 250.183594 243.371094 251.410156 243.679688 257.703125 249.511719 C 260.617188 252.273438 262.152344 253.191406 260.925781 251.503906 C 259.238281 249.203125 259.851562 249.355469 263.226562 252.273438 C 265.835938 254.421875 268.292969 256.722656 268.753906 257.335938 C 269.210938 258.105469 270.132812 258.5625 270.746094 258.5625 C 273.816406 258.105469 274.429688 258.871094 275.503906 263.933594 C 276.730469 270.996094 277.960938 269.765625 278.113281 261.480469 C 278.113281 257.183594 277.039062 253.5 274.738281 250.429688 C 269.671875 243.523438 272.28125 243.371094 280.570312 250.277344 C 287.78125 256.414062 288.089844 256.414062 289.929688 253.5 C 291.464844 250.890625 291.15625 249.664062 287.78125 245.214844 C 283.484375 239.6875 273.816406 233.859375 268.753906 233.859375 C 267.0625 233.859375 265.222656 233.089844 264.609375 232.167969 C 263.839844 230.941406 265.070312 230.636719 268.445312 231.09375 C 271.207031 231.554688 273.664062 231.25 274.125 230.480469 C 274.582031 229.867188 275.65625 229.253906 276.425781 229.253906 C 277.347656 229.253906 277.5 229.867188 277.039062 230.789062 Z M 277.039062 230.789062 " fill-opacity="1" fill-rule="nonzero"/></g></g></g></g></svg>