<svg xmlns="http://www.w3.org/2000/svg" xmlns:xlink="http://www.w3.org/1999/xlink" width="1700" zoomAndPan="magnify" viewBox="0 0 1275 510.000002" height="680" preserveAspectRatio="xMidYMid meet" version="1.0"><defs><g/><clipPath id="1ec00cf222"><path d="M 55 0.253906 L 515.957031 0.253906 L 515.957031 247.070312 L 55 247.070312 Z M 55 0.253906 " clip-rule="nonzero"/></clipPath><clipPath id="1cbe5f228f"><path d="M 55 239.363281 L 515.957031 239.363281 L 515.957031 440.75 L 55 440.75 Z M 55 239.363281 " clip-rule="nonzero"/></clipPath><clipPath id="dfd43957cb"><path d="M 0.375 295 L 269 295 L 269 335 L 0.375 335 Z M 0.375 295 " clip-rule="nonzero"/></clipPath><clipPath id="bf62ec1256"><rect x="0" width="315" y="0" height="35"/></clipPath><clipPath id="bcce8f1b00"><rect x="0" width="1093" y="0" height="441"/></clipPath></defs><g transform="matrix(1, 0, 0, 1, 78, 34)"><g clip-path="url(#bcce8f1b00)"><g clip-path="url(#1ec00cf222)"><path fill="#c13383" d="M 463.871094 2.714844 C 462.488281 3.699219 461.398438 4.097656 461.398438 3.503906 C 461.398438 1.527344 459.722656 2.417969 458.636719 4.984375 C 457.945312 6.367188 457.054688 7.257812 456.5625 6.960938 C 456.066406 6.664062 455.375 7.453125 455.078125 8.835938 C 454.683594 10.21875 453.796875 11.304688 453.003906 11.304688 C 451.425781 11.304688 451.226562 11.800781 451.523438 17.824219 L 451.621094 21.972656 L 446.78125 17.230469 C 440.460938 11.109375 433.746094 8.738281 427.027344 10.21875 C 420.410156 11.601562 412.015625 15.453125 414.289062 15.949219 C 416.066406 16.441406 416.066406 16.441406 414.289062 17.921875 C 412.609375 19.207031 412.707031 19.304688 415.375 18.714844 C 418.039062 18.121094 418.140625 18.21875 416.855469 19.800781 C 415.570312 21.378906 415.671875 21.480469 417.449219 20.789062 C 419.820312 19.898438 426.832031 18.910156 425.152344 19.800781 C 423.078125 20.6875 423.671875 22.367188 425.84375 21.777344 C 426.929688 21.480469 428.804688 20.886719 429.992188 20.589844 C 431.671875 20.097656 431.96875 20.292969 431.375 21.675781 C 430.980469 22.960938 431.175781 23.257812 432.261719 22.761719 C 433.054688 22.46875 434.4375 21.875 435.226562 21.578125 C 436.214844 21.183594 436.511719 21.378906 436.214844 22.367188 C 435.820312 23.257812 436.90625 24.144531 439.375 25.035156 C 441.449219 25.824219 444.015625 27.011719 445.101562 27.898438 L 447.078125 29.28125 L 445.101562 28.589844 C 444.015625 28.097656 439.574219 27.601562 435.128906 27.308594 C 424.855469 26.8125 419.128906 29.085938 412.015625 36.492188 C 406.78125 42.121094 405.300781 45.382812 409.644531 42.023438 C 412.410156 39.851562 414.582031 39.257812 413.496094 40.9375 C 412.507812 42.515625 413.992188 42.121094 417.746094 39.75 C 420.707031 37.972656 421.203125 37.875 420.609375 39.257812 C 419.71875 41.628906 421.300781 41.332031 424.65625 38.46875 C 427.523438 36.097656 427.621094 36.097656 427.128906 38.074219 C 426.535156 40.046875 426.632812 40.148438 429.597656 38.566406 C 433.25 36.691406 434.832031 36.589844 434.238281 38.171875 C 433.84375 39.160156 435.226562 39.355469 439.375 39.257812 L 445.101562 38.960938 L 439.867188 40.441406 C 430.980469 42.914062 424.953125 45.972656 421.792969 49.628906 C 418.335938 53.578125 413.597656 62.960938 414.878906 63.457031 C 415.273438 63.554688 415.472656 64.9375 415.273438 66.417969 C 414.878906 68.492188 415.078125 68.789062 415.867188 67.605469 C 416.757812 66.417969 416.953125 66.714844 416.953125 69.085938 C 416.953125 70.667969 417.449219 72.742188 417.941406 73.53125 C 418.632812 74.617188 418.929688 74.222656 419.027344 71.554688 C 419.226562 68.59375 419.324219 68.492188 419.621094 70.765625 C 420.015625 73.53125 421.894531 74.714844 421.894531 72.148438 C 421.894531 70.566406 428.90625 60.691406 430.1875 60.691406 C 430.585938 60.691406 431.867188 59.605469 432.953125 58.121094 C 434.042969 56.738281 435.128906 55.851562 435.324219 56.046875 C 435.523438 56.246094 435.027344 59.605469 434.238281 63.457031 C 432.660156 70.964844 433.054688 77.183594 435.324219 80.148438 C 436.511719 81.730469 436.609375 81.730469 436.707031 79.160156 C 436.707031 77.679688 437.203125 76.492188 437.695312 76.492188 C 438.289062 76.492188 438.683594 75.109375 438.683594 73.53125 C 438.683594 71.851562 439.175781 70.566406 439.671875 70.566406 C 440.265625 70.566406 440.660156 69.679688 440.660156 68.59375 C 440.660156 66.417969 442.238281 65.925781 442.929688 67.800781 C 443.226562 68.492188 444.015625 67.507812 444.707031 65.726562 C 445.695312 62.765625 445.992188 62.566406 446.585938 64.148438 C 447.175781 65.828125 447.472656 65.53125 448.558594 62.46875 C 449.351562 60.394531 450.238281 59.210938 450.632812 59.800781 C 450.929688 60.394531 452.214844 59.40625 453.5 57.234375 C 454.683594 55.257812 456.164062 53.875 456.855469 54.074219 C 457.449219 54.269531 458.535156 57.925781 459.226562 62.269531 C 463.078125 86.46875 467.523438 102.667969 477.203125 127.0625 L 479.078125 131.804688 L 473.945312 131.804688 C 471.078125 131.804688 467.523438 132.496094 465.945312 133.285156 C 464.460938 134.078125 462.980469 134.769531 462.683594 134.769531 C 461.5 134.769531 468.414062 127.164062 470.785156 125.878906 L 473.351562 124.496094 L 471.179688 123.707031 C 468.214844 122.621094 459.820312 125.386719 457.945312 128.148438 C 457.152344 129.238281 456.265625 129.929688 455.96875 129.730469 C 455.277344 129.039062 458.4375 120.839844 460.214844 118.667969 C 461.597656 117.1875 461.5 116.988281 459.917969 116.988281 C 457.84375 116.988281 450.535156 121.730469 450.535156 123.015625 C 450.535156 123.507812 449.84375 123.902344 448.957031 123.902344 C 447.671875 123.902344 447.472656 124.695312 447.769531 127.855469 C 447.96875 130.027344 447.867188 131.804688 447.574219 131.804688 C 447.277344 131.707031 445.5 130.421875 443.621094 128.839844 C 441.054688 126.570312 439.277344 125.878906 435.917969 125.878906 C 433.546875 125.878906 431.867188 126.175781 432.066406 126.570312 C 432.363281 127.0625 430.585938 127.164062 428.214844 126.964844 C 425.84375 126.867188 422.582031 127.164062 420.90625 127.65625 C 419.324219 128.25 417.941406 128.445312 417.941406 128.148438 C 417.941406 127.164062 425.941406 120.546875 429.203125 118.765625 L 432.261719 117.1875 L 428.707031 116.496094 C 424.164062 115.605469 419.226562 117.679688 415.175781 122.027344 L 412.113281 125.386719 L 413.496094 120.148438 C 414.1875 117.285156 415.375 114.222656 415.964844 113.433594 C 416.953125 112.445312 416.953125 112.050781 416.066406 112.050781 C 413.398438 112.050781 409.050781 115.210938 408.460938 117.484375 C 407.570312 121.136719 406.386719 120.445312 405.59375 116 C 404.3125 108.496094 400.558594 113.234375 401.449219 121.136719 L 402.039062 125.976562 L 399.375 124.101562 C 395.519531 121.335938 392.65625 120.644531 387.71875 121.433594 C 382.582031 122.125 382.1875 123.210938 386.335938 125.089844 C 388.015625 125.78125 389.296875 126.667969 389.296875 127.0625 C 389.296875 127.457031 390.679688 127.855469 392.460938 128.050781 C 397.59375 128.546875 396.609375 130.324219 390.484375 131.605469 C 384.753906 132.792969 379.621094 136.644531 378.136719 140.992188 C 377.546875 142.472656 377.941406 142.472656 381.496094 140.59375 C 383.769531 139.507812 387.621094 138.421875 390.1875 138.125 C 392.65625 137.929688 395.71875 137.535156 396.902344 137.238281 C 398.089844 136.941406 399.273438 137.136719 399.570312 137.632812 C 399.867188 138.125 398.386719 138.71875 396.210938 139.113281 C 391.964844 139.804688 384.359375 146.027344 384.359375 148.890625 C 384.359375 151.261719 384.953125 151.066406 389.59375 147.113281 C 394.136719 143.164062 395.519531 143.261719 392.359375 147.210938 C 389.003906 151.460938 388.015625 156.792969 389.695312 160.941406 C 390.484375 162.816406 391.371094 164.398438 391.667969 164.398438 C 391.964844 164.398438 392.753906 162.523438 393.25 160.152344 C 393.84375 157.878906 395.71875 154.421875 397.300781 152.546875 L 400.261719 149.089844 L 399.667969 152.152344 C 399.375 153.832031 399.570312 156.496094 400.261719 158.078125 L 401.449219 160.941406 L 402.335938 157.582031 C 403.226562 154.523438 408.558594 145.632812 409.546875 145.632812 C 409.742188 145.632812 410.433594 147.507812 411.027344 149.78125 C 414.980469 165.289062 417.941406 173.484375 424.757812 188.003906 C 433.054688 205.289062 440.265625 224.648438 439.375 227.019531 C 438.191406 230.179688 426.929688 232.648438 409.546875 233.636719 C 383.964844 235.117188 380.804688 235.808594 367.074219 242.921875 C 356.902344 248.15625 354.039062 249.144531 346.730469 250.128906 C 342.085938 250.820312 335.667969 252.304688 332.40625 253.488281 C 327.863281 255.070312 322.925781 255.761719 310.480469 256.351562 C 296.257812 257.042969 293.296875 257.539062 285.789062 260.105469 C 277.984375 262.773438 275.515625 263.167969 258.429688 263.957031 C 241.835938 264.75 238.773438 265.144531 232.253906 267.515625 C 222.972656 270.871094 197.390625 273.539062 165.09375 274.425781 C 151.855469 274.824219 137.4375 275.910156 129.535156 276.996094 C 112.25 279.464844 87.460938 281.835938 68.988281 282.625 C 60.988281 282.921875 54.765625 283.613281 55.164062 284.007812 C 56.148438 284.996094 113.039062 286.675781 181.882812 287.859375 C 250.625 289.046875 277.292969 290.625 336.949219 297.34375 C 373.496094 301.390625 390.878906 305.046875 405.101562 311.664062 C 413.496094 315.515625 416.953125 318.875 416.953125 323.023438 C 416.953125 328.453125 410.433594 332.703125 389.890625 340.601562 C 376.65625 345.738281 374.1875 346.925781 365.296875 352.75 C 354.925781 359.566406 350.679688 361.34375 330.53125 367.664062 C 320.257812 370.925781 307.519531 375.371094 302.28125 377.542969 C 294.382812 380.800781 288.355469 382.285156 268.207031 386.035156 C 254.675781 388.507812 234.726562 392.753906 223.859375 395.421875 C 202.328125 400.753906 188.597656 403.421875 156.203125 408.851562 C 133.191406 412.703125 126.175781 414.085938 114.523438 417.347656 C 103.164062 420.507812 103.558594 422.777344 115.90625 425.542969 C 127.855469 428.308594 149.980469 429.101562 218.429688 429.101562 C 285 429.101562 296.355469 429.398438 338.433594 432.558594 C 361.148438 434.335938 370.433594 435.222656 393.742188 438.285156 C 417.84375 441.347656 452.414062 441.347656 463.769531 438.1875 C 475.425781 434.929688 485.007812 429.890625 491.230469 423.867188 C 499.722656 415.46875 502.882812 407.171875 504.859375 387.617188 C 505.746094 377.9375 506.242188 376.554688 511.082031 367.371094 L 516.21875 357.492188 L 516.21875 201.4375 L 512.660156 201.140625 L 509.105469 200.84375 L 507.425781 192.746094 C 503.277344 172.992188 492.414062 140.101562 481.746094 115.113281 C 472.859375 94.371094 467.03125 74.714844 464.855469 57.925781 C 464.066406 51.605469 465.054688 51.308594 469.894531 56.445312 C 472.167969 59.011719 473.152344 59.503906 472.660156 58.222656 C 472.265625 56.9375 473.054688 57.429688 475.128906 59.703125 C 476.808594 61.578125 478.191406 62.566406 478.191406 61.777344 C 478.191406 60.097656 483.128906 65.136719 483.128906 66.816406 C 483.128906 67.507812 483.820312 67.109375 484.609375 66.023438 C 485.992188 64.246094 485.992188 64.246094 486.09375 66.816406 C 486.09375 69.679688 487.476562 70.46875 488.464844 68.296875 C 488.757812 67.703125 488.859375 68.394531 488.5625 69.976562 C 488.066406 72.148438 488.265625 72.640625 489.449219 72.246094 C 490.933594 71.65625 492.019531 73.433594 492.019531 76.59375 C 492.019531 80.050781 493.894531 78.46875 494.191406 74.714844 C 494.585938 69.480469 492.316406 60 489.351562 54.765625 L 486.785156 50.320312 L 490.242188 53.480469 C 494.09375 57.234375 495.476562 57.628906 494.6875 54.765625 C 494.390625 53.679688 494.585938 52.789062 495.082031 52.789062 C 495.574219 52.789062 495.96875 53.183594 495.96875 53.679688 C 495.96875 54.171875 497.054688 55.554688 498.4375 56.839844 C 499.722656 58.121094 500.90625 59.800781 500.90625 60.394531 C 500.90625 61.085938 501.304688 61.679688 501.796875 61.679688 C 502.289062 61.679688 502.882812 61.085938 503.179688 60.394531 C 503.378906 59.800781 504.070312 60.789062 504.5625 62.667969 C 505.453125 65.433594 505.746094 65.828125 506.339844 64.34375 C 507.03125 62.667969 507.128906 62.667969 508.414062 64.34375 C 509.601562 66.023438 509.699219 65.925781 509.796875 63.851562 C 509.894531 57.53125 502.191406 47.652344 493.996094 43.40625 C 490.539062 41.628906 480.5625 38.960938 477.5 38.960938 C 477.300781 38.960938 477.203125 38.566406 477.203125 38.074219 C 477.203125 37.675781 480.957031 37.382812 485.597656 37.382812 C 490.242188 37.480469 493.996094 37.183594 493.996094 36.789062 C 493.996094 36 492.613281 34.714844 487.082031 30.171875 L 484.609375 28.195312 L 489.054688 28.097656 C 491.722656 28.097656 494.488281 28.789062 495.96875 29.777344 C 498.140625 31.355469 498.242188 31.355469 497.648438 29.675781 C 497.054688 28.195312 497.351562 28 499.128906 28.394531 C 500.414062 28.589844 502.191406 29.183594 503.179688 29.578125 C 504.5625 30.171875 504.761719 29.972656 504.167969 28.492188 C 503.574219 26.714844 503.574219 26.714844 505.550781 28.292969 C 507.722656 30.269531 509.304688 30.664062 508.21875 28.984375 C 507.820312 28.195312 508.316406 28.097656 509.894531 28.492188 C 513.847656 29.578125 504.464844 21.675781 498.339844 18.613281 C 490.636719 14.863281 482.832031 15.652344 472.660156 21.085938 C 468.609375 23.257812 465.351562 24.738281 465.351562 24.34375 C 465.351562 23.949219 466.535156 21.875 467.820312 19.703125 C 470.882812 14.863281 470.882812 14.46875 468.117188 14.070312 C 466.140625 13.777344 466.4375 13.378906 470.488281 10.417969 C 473.054688 8.539062 474.933594 6.664062 474.636719 6.171875 C 474.339844 5.773438 474.832031 5.082031 475.722656 4.789062 C 477.003906 4.195312 477.105469 3.996094 476.019531 3.304688 C 475.03125 2.613281 475.128906 2.417969 476.414062 2.417969 C 477.300781 2.417969 478.386719 2.023438 478.683594 1.429688 C 479.871094 -0.449219 466.636719 0.738281 463.871094 2.714844 Z M 435.324219 132.792969 C 435.621094 132.792969 435.523438 132.296875 435.226562 131.804688 C 434.929688 131.210938 435.128906 130.816406 435.621094 130.816406 C 436.214844 130.816406 436.707031 131.210938 436.707031 131.804688 C 436.707031 132.296875 437.398438 132.792969 438.289062 132.792969 C 439.175781 132.792969 440.953125 133.679688 442.335938 134.769531 C 445.203125 137.039062 444.609375 137.238281 440.066406 135.558594 C 437.597656 134.667969 435.917969 134.769531 432.164062 135.855469 C 429.496094 136.546875 426.929688 137.039062 426.535156 136.941406 C 426.039062 136.84375 424.363281 136.546875 422.78125 136.347656 C 421.101562 136.152344 419.621094 135.753906 419.324219 135.558594 C 418.632812 134.769531 427.820312 132.695312 428.90625 133.285156 C 429.398438 133.679688 429.792969 133.582031 429.695312 133.089844 C 429.398438 131.210938 429.894531 130.914062 432.363281 131.804688 C 433.746094 132.398438 435.128906 132.792969 435.324219 132.792969 Z M 481.152344 137.039062 C 481.152344 137.136719 481.550781 138.621094 482.042969 140.398438 L 482.933594 143.460938 L 478.386719 141.484375 C 473.054688 139.210938 470.488281 137.136719 474.042969 138.027344 C 475.226562 138.324219 476.214844 138.125 476.214844 137.632812 C 476.214844 137.136719 477.300781 136.742188 478.683594 136.742188 C 480.066406 136.742188 481.152344 136.84375 481.152344 137.039062 Z M 471.96875 140.300781 C 471.671875 140.59375 470.785156 140.695312 470.09375 140.398438 C 469.300781 140.101562 469.597656 139.804688 470.683594 139.804688 C 471.769531 139.707031 472.363281 140.003906 471.96875 140.300781 Z M 432.953125 148.199219 C 430.089844 150.667969 427.324219 153.632812 426.730469 154.621094 C 425.347656 157.386719 424.460938 165.386719 425.84375 163.410156 C 426.632812 162.128906 426.929688 162.324219 427.421875 164.101562 C 428.3125 167.261719 429.203125 166.964844 430.585938 163.113281 C 432.066406 159.066406 436.707031 153.535156 436.707031 155.804688 C 436.707031 156.792969 436.410156 157.484375 436.015625 157.484375 C 435.523438 157.484375 435.128906 159.558594 435.027344 162.226562 L 434.832031 166.867188 L 439.769531 161.140625 L 439.175781 164.597656 C 438.78125 166.671875 439.078125 169.335938 439.867188 171.410156 L 441.25 174.769531 L 442.4375 170.027344 C 443.128906 167.363281 444.117188 165.484375 444.808594 165.683594 C 445.5 165.78125 446.191406 164.890625 446.386719 163.609375 C 446.585938 162.421875 447.277344 161.4375 447.96875 161.4375 C 448.757812 161.4375 449.84375 160.054688 450.535156 158.472656 C 452.117188 154.816406 454.289062 154.621094 455.078125 158.175781 C 457.351562 168.84375 461.398438 180.398438 466.832031 192.152344 C 470.386719 199.757812 473.253906 206.472656 473.253906 207.164062 C 473.253906 207.855469 470.683594 209.929688 467.621094 211.710938 C 464.460938 213.585938 459.324219 216.84375 456.164062 218.917969 C 453.003906 220.992188 449.941406 222.671875 449.449219 222.671875 C 448.957031 222.671875 445.003906 215.460938 440.558594 206.671875 C 436.214844 197.980469 430.585938 187.511719 428.214844 183.558594 C 425.84375 179.609375 422.484375 173.089844 420.90625 169.039062 C 417.546875 160.546875 413.398438 145.929688 414.1875 145.039062 C 414.484375 144.84375 417.152344 145.632812 420.015625 147.015625 C 422.980469 148.300781 425.546875 148.992188 425.644531 148.496094 C 425.84375 148.003906 426.632812 147.609375 427.421875 147.609375 C 428.3125 147.609375 428.609375 148.101562 428.214844 148.792969 C 427.820312 149.484375 427.917969 149.582031 428.609375 149.1875 C 429.300781 148.792969 429.792969 148.003906 429.792969 147.410156 C 429.792969 145.730469 432.953125 143.757812 435.71875 143.65625 C 437.894531 143.65625 437.597656 144.152344 432.953125 148.199219 Z M 475.722656 146.621094 C 475.425781 147.113281 475.523438 147.609375 476.117188 147.609375 C 476.609375 147.609375 477.300781 147.210938 477.695312 146.71875 C 477.992188 146.125 479.375 146.125 481.152344 146.816406 C 483.328125 147.507812 484.316406 148.695312 485.105469 151.359375 C 487.773438 161.4375 493.996094 195.808594 493.996094 200.648438 C 493.996094 202.324219 493.402344 202.917969 491.722656 202.917969 C 490.4375 202.917969 487.277344 203.511719 484.710938 204.300781 L 480.066406 205.683594 L 477.992188 201.632812 C 476.90625 199.363281 473.945312 194.128906 471.476562 190.078125 C 464.460938 178.425781 458.4375 163.609375 458.4375 157.683594 C 458.4375 154.71875 459.226562 154.917969 463.277344 158.671875 C 465.152344 160.449219 466.140625 161.039062 465.351562 159.953125 C 464.265625 158.472656 464.660156 158.570312 466.832031 160.449219 C 468.511719 161.832031 470.09375 163.3125 470.386719 163.707031 C 470.683594 164.199219 471.277344 164.496094 471.671875 164.496094 C 473.648438 164.199219 474.042969 164.695312 474.734375 167.953125 C 475.523438 172.496094 476.316406 171.707031 476.414062 166.375 C 476.414062 163.609375 475.722656 161.238281 474.242188 159.261719 C 470.980469 154.816406 472.660156 154.71875 477.992188 159.164062 C 482.636719 163.113281 482.832031 163.113281 484.019531 161.238281 C 485.007812 159.558594 484.808594 158.769531 482.636719 155.90625 C 479.871094 152.347656 473.648438 148.59375 470.386719 148.59375 C 469.300781 148.59375 468.117188 148.101562 467.722656 147.507812 C 467.226562 146.71875 468.019531 146.519531 470.191406 146.816406 C 471.96875 147.113281 473.550781 146.917969 473.84375 146.421875 C 474.140625 146.027344 474.832031 145.632812 475.328125 145.632812 C 475.917969 145.632812 476.019531 146.027344 475.722656 146.621094 Z M 475.722656 146.621094 " fill-opacity="1" fill-rule="nonzero"/></g><g clip-path="url(#1cbe5f228f)"><path fill="#443199" d="M 463.871094 2.714844 C 462.488281 3.699219 461.398438 4.097656 461.398438 3.503906 C 461.398438 1.527344 459.722656 2.417969 458.636719 4.984375 C 457.945312 6.367188 457.054688 7.257812 456.5625 6.960938 C 456.066406 6.664062 455.375 7.453125 455.078125 8.835938 C 454.683594 10.21875 453.796875 11.304688 453.003906 11.304688 C 451.425781 11.304688 451.226562 11.800781 451.523438 17.824219 L 451.621094 21.972656 L 446.78125 17.230469 C 440.460938 11.109375 433.746094 8.738281 427.027344 10.21875 C 420.410156 11.601562 412.015625 15.453125 414.289062 15.949219 C 416.066406 16.441406 416.066406 16.441406 414.289062 17.921875 C 412.609375 19.207031 412.707031 19.304688 415.375 18.714844 C 418.039062 18.121094 418.140625 18.21875 416.855469 19.800781 C 415.570312 21.378906 415.671875 21.480469 417.449219 20.789062 C 419.820312 19.898438 426.832031 18.910156 425.152344 19.800781 C 423.078125 20.6875 423.671875 22.367188 425.84375 21.777344 C 426.929688 21.480469 428.804688 20.886719 429.992188 20.589844 C 431.671875 20.097656 431.96875 20.292969 431.375 21.675781 C 430.980469 22.960938 431.175781 23.257812 432.261719 22.761719 C 433.054688 22.46875 434.4375 21.875 435.226562 21.578125 C 436.214844 21.183594 436.511719 21.378906 436.214844 22.367188 C 435.820312 23.257812 436.90625 24.144531 439.375 25.035156 C 441.449219 25.824219 444.015625 27.011719 445.101562 27.898438 L 447.078125 29.28125 L 445.101562 28.589844 C 444.015625 28.097656 439.574219 27.601562 435.128906 27.308594 C 424.855469 26.8125 419.128906 29.085938 412.015625 36.492188 C 406.78125 42.121094 405.300781 45.382812 409.644531 42.023438 C 412.410156 39.851562 414.582031 39.257812 413.496094 40.9375 C 412.507812 42.515625 413.992188 42.121094 417.746094 39.75 C 420.707031 37.972656 421.203125 37.875 420.609375 39.257812 C 419.71875 41.628906 421.300781 41.332031 424.65625 38.46875 C 427.523438 36.097656 427.621094 36.097656 427.128906 38.074219 C 426.535156 40.046875 426.632812 40.148438 429.597656 38.566406 C 433.25 36.691406 434.832031 36.589844 434.238281 38.171875 C 433.84375 39.160156 435.226562 39.355469 439.375 39.257812 L 445.101562 38.960938 L 439.867188 40.441406 C 430.980469 42.914062 424.953125 45.972656 421.792969 49.628906 C 418.335938 53.578125 413.597656 62.960938 414.878906 63.457031 C 415.273438 63.554688 415.472656 64.9375 415.273438 66.417969 C 414.878906 68.492188 415.078125 68.789062 415.867188 67.605469 C 416.757812 66.417969 416.953125 66.714844 416.953125 69.085938 C 416.953125 70.667969 417.449219 72.742188 417.941406 73.53125 C 418.632812 74.617188 418.929688 74.222656 419.027344 71.554688 C 419.226562 68.59375 419.324219 68.492188 419.621094 70.765625 C 420.015625 73.53125 421.894531 74.714844 421.894531 72.148438 C 421.894531 70.566406 428.90625 60.691406 430.1875 60.691406 C 430.585938 60.691406 431.867188 59.605469 432.953125 58.121094 C 434.042969 56.738281 435.128906 55.851562 435.324219 56.046875 C 435.523438 56.246094 435.027344 59.605469 434.238281 63.457031 C 432.660156 70.964844 433.054688 77.183594 435.324219 80.148438 C 436.511719 81.730469 436.609375 81.730469 436.707031 79.160156 C 436.707031 77.679688 437.203125 76.492188 437.695312 76.492188 C 438.289062 76.492188 438.683594 75.109375 438.683594 73.53125 C 438.683594 71.851562 439.175781 70.566406 439.671875 70.566406 C 440.265625 70.566406 440.660156 69.679688 440.660156 68.59375 C 440.660156 66.417969 442.238281 65.925781 442.929688 67.800781 C 443.226562 68.492188 444.015625 67.507812 444.707031 65.726562 C 445.695312 62.765625 445.992188 62.566406 446.585938 64.148438 C 447.175781 65.828125 447.472656 65.53125 448.558594 62.46875 C 449.351562 60.394531 450.238281 59.210938 450.632812 59.800781 C 450.929688 60.394531 452.214844 59.40625 453.5 57.234375 C 454.683594 55.257812 456.164062 53.875 456.855469 54.074219 C 457.449219 54.269531 458.535156 57.925781 459.226562 62.269531 C 463.078125 86.46875 467.523438 102.667969 477.203125 127.0625 L 479.078125 131.804688 L 473.945312 131.804688 C 471.078125 131.804688 467.523438 132.496094 465.945312 133.285156 C 464.460938 134.078125 462.980469 134.769531 462.683594 134.769531 C 461.5 134.769531 468.414062 127.164062 470.785156 125.878906 L 473.351562 124.496094 L 471.179688 123.707031 C 468.214844 122.621094 459.820312 125.386719 457.945312 128.148438 C 457.152344 129.238281 456.265625 129.929688 455.96875 129.730469 C 455.277344 129.039062 458.4375 120.839844 460.214844 118.667969 C 461.597656 117.1875 461.5 116.988281 459.917969 116.988281 C 457.84375 116.988281 450.535156 121.730469 450.535156 123.015625 C 450.535156 123.507812 449.84375 123.902344 448.957031 123.902344 C 447.671875 123.902344 447.472656 124.695312 447.769531 127.855469 C 447.96875 130.027344 447.867188 131.804688 447.574219 131.804688 C 447.277344 131.707031 445.5 130.421875 443.621094 128.839844 C 441.054688 126.570312 439.277344 125.878906 435.917969 125.878906 C 433.546875 125.878906 431.867188 126.175781 432.066406 126.570312 C 432.363281 127.0625 430.585938 127.164062 428.214844 126.964844 C 425.84375 126.867188 422.582031 127.164062 420.90625 127.65625 C 419.324219 128.25 417.941406 128.445312 417.941406 128.148438 C 417.941406 127.164062 425.941406 120.546875 429.203125 118.765625 L 432.261719 117.1875 L 428.707031 116.496094 C 424.164062 115.605469 419.226562 117.679688 415.175781 122.027344 L 412.113281 125.386719 L 413.496094 120.148438 C 414.1875 117.285156 415.375 114.222656 415.964844 113.433594 C 416.953125 112.445312 416.953125 112.050781 416.066406 112.050781 C 413.398438 112.050781 409.050781 115.210938 408.460938 117.484375 C 407.570312 121.136719 406.386719 120.445312 405.59375 116 C 404.3125 108.496094 400.558594 113.234375 401.449219 121.136719 L 402.039062 125.976562 L 399.375 124.101562 C 395.519531 121.335938 392.65625 120.644531 387.71875 121.433594 C 382.582031 122.125 382.1875 123.210938 386.335938 125.089844 C 388.015625 125.78125 389.296875 126.667969 389.296875 127.0625 C 389.296875 127.457031 390.679688 127.855469 392.460938 128.050781 C 397.59375 128.546875 396.609375 130.324219 390.484375 131.605469 C 384.753906 132.792969 379.621094 136.644531 378.136719 140.992188 C 377.546875 142.472656 377.941406 142.472656 381.496094 140.59375 C 383.769531 139.507812 387.621094 138.421875 390.1875 138.125 C 392.65625 137.929688 395.71875 137.535156 396.902344 137.238281 C 398.089844 136.941406 399.273438 137.136719 399.570312 137.632812 C 399.867188 138.125 398.386719 138.71875 396.210938 139.113281 C 391.964844 139.804688 384.359375 146.027344 384.359375 148.890625 C 384.359375 151.261719 384.953125 151.066406 389.59375 147.113281 C 394.136719 143.164062 395.519531 143.261719 392.359375 147.210938 C 389.003906 151.460938 388.015625 156.792969 389.695312 160.941406 C 390.484375 162.816406 391.371094 164.398438 391.667969 164.398438 C 391.964844 164.398438 392.753906 162.523438 393.25 160.152344 C 393.84375 157.878906 395.71875 154.421875 397.300781 152.546875 L 400.261719 149.089844 L 399.667969 152.152344 C 399.375 153.832031 399.570312 156.496094 400.261719 158.078125 L 401.449219 160.941406 L 402.335938 157.582031 C 403.226562 154.523438 408.558594 145.632812 409.546875 145.632812 C 409.742188 145.632812 410.433594 147.507812 411.027344 149.78125 C 414.980469 165.289062 417.941406 173.484375 424.757812 188.003906 C 433.054688 205.289062 440.265625 224.648438 439.375 227.019531 C 438.191406 230.179688 426.929688 232.648438 409.546875 233.636719 C 383.964844 235.117188 380.804688 235.808594 367.074219 242.921875 C 356.902344 248.15625 354.039062 249.144531 346.730469 250.128906 C 342.085938 250.820312 335.667969 252.304688 332.40625 253.488281 C 327.863281 255.070312 322.925781 255.761719 310.480469 256.351562 C 296.257812 257.042969 293.296875 257.539062 285.789062 260.105469 C 277.984375 262.773438 275.515625 263.167969 258.429688 263.957031 C 241.835938 264.75 238.773438 265.144531 232.253906 267.515625 C 222.972656 270.871094 197.390625 273.539062 165.09375 274.425781 C 151.855469 274.824219 137.4375 275.910156 129.535156 276.996094 C 112.25 279.464844 87.460938 281.835938 68.988281 282.625 C 60.988281 282.921875 54.765625 283.613281 55.164062 284.007812 C 56.148438 284.996094 113.039062 286.675781 181.882812 287.859375 C 250.625 289.046875 277.292969 290.625 336.949219 297.34375 C 373.496094 301.390625 390.878906 305.046875 405.101562 311.664062 C 413.496094 315.515625 416.953125 318.875 416.953125 323.023438 C 416.953125 328.453125 410.433594 332.703125 389.890625 340.601562 C 376.65625 345.738281 374.1875 346.925781 365.296875 352.75 C 354.925781 359.566406 350.679688 361.34375 330.53125 367.664062 C 320.257812 370.925781 307.519531 375.371094 302.28125 377.542969 C 294.382812 380.800781 288.355469 382.285156 268.207031 386.035156 C 254.675781 388.507812 234.726562 392.753906 223.859375 395.421875 C 202.328125 400.753906 188.597656 403.421875 156.203125 408.851562 C 133.191406 412.703125 126.175781 414.085938 114.523438 417.347656 C 103.164062 420.507812 103.558594 422.777344 115.90625 425.542969 C 127.855469 428.308594 149.980469 429.101562 218.429688 429.101562 C 285 429.101562 296.355469 429.398438 338.433594 432.558594 C 361.148438 434.335938 370.433594 435.222656 393.742188 438.285156 C 417.84375 441.347656 452.414062 441.347656 463.769531 438.1875 C 475.425781 434.929688 485.007812 429.890625 491.230469 423.867188 C 499.722656 415.46875 502.882812 407.171875 504.859375 387.617188 C 505.746094 377.9375 506.242188 376.554688 511.082031 367.371094 L 516.21875 357.492188 L 516.21875 201.4375 L 512.660156 201.140625 L 509.105469 200.84375 L 507.425781 192.746094 C 503.277344 172.992188 492.414062 140.101562 481.746094 115.113281 C 472.859375 94.371094 467.03125 74.714844 464.855469 57.925781 C 464.066406 51.605469 465.054688 51.308594 469.894531 56.445312 C 472.167969 59.011719 473.152344 59.503906 472.660156 58.222656 C 472.265625 56.9375 473.054688 57.429688 475.128906 59.703125 C 476.808594 61.578125 478.191406 62.566406 478.191406 61.777344 C 478.191406 60.097656 483.128906 65.136719 483.128906 66.816406 C 483.128906 67.507812 483.820312 67.109375 484.609375 66.023438 C 485.992188 64.246094 485.992188 64.246094 486.09375 66.816406 C 486.09375 69.679688 487.476562 70.46875 488.464844 68.296875 C 488.757812 67.703125 488.859375 68.394531 488.5625 69.976562 C 488.066406 72.148438 488.265625 72.640625 489.449219 72.246094 C 490.933594 71.65625 492.019531 73.433594 492.019531 76.59375 C 492.019531 80.050781 493.894531 78.46875 494.191406 74.714844 C 494.585938 69.480469 492.316406 60 489.351562 54.765625 L 486.785156 50.320312 L 490.242188 53.480469 C 494.09375 57.234375 495.476562 57.628906 494.6875 54.765625 C 494.390625 53.679688 494.585938 52.789062 495.082031 52.789062 C 495.574219 52.789062 495.96875 53.183594 495.96875 53.679688 C 495.96875 54.171875 497.054688 55.554688 498.4375 56.839844 C 499.722656 58.121094 500.90625 59.800781 500.90625 60.394531 C 500.90625 61.085938 501.304688 61.679688 501.796875 61.679688 C 502.289062 61.679688 502.882812 61.085938 503.179688 60.394531 C 503.378906 59.800781 504.070312 60.789062 504.5625 62.667969 C 505.453125 65.433594 505.746094 65.828125 506.339844 64.34375 C 507.03125 62.667969 507.128906 62.667969 508.414062 64.34375 C 509.601562 66.023438 509.699219 65.925781 509.796875 63.851562 C 509.894531 57.53125 502.191406 47.652344 493.996094 43.40625 C 490.539062 41.628906 480.5625 38.960938 477.5 38.960938 C 477.300781 38.960938 477.203125 38.566406 477.203125 38.074219 C 477.203125 37.675781 480.957031 37.382812 485.597656 37.382812 C 490.242188 37.480469 493.996094 37.183594 493.996094 36.789062 C 493.996094 36 492.613281 34.714844 487.082031 30.171875 L 484.609375 28.195312 L 489.054688 28.097656 C 491.722656 28.097656 494.488281 28.789062 495.96875 29.777344 C 498.140625 31.355469 498.242188 31.355469 497.648438 29.675781 C 497.054688 28.195312 497.351562 28 499.128906 28.394531 C 500.414062 28.589844 502.191406 29.183594 503.179688 29.578125 C 504.5625 30.171875 504.761719 29.972656 504.167969 28.492188 C 503.574219 26.714844 503.574219 26.714844 505.550781 28.292969 C 507.722656 30.269531 509.304688 30.664062 508.21875 28.984375 C 507.820312 28.195312 508.316406 28.097656 509.894531 28.492188 C 513.847656 29.578125 504.464844 21.675781 498.339844 18.613281 C 490.636719 14.863281 482.832031 15.652344 472.660156 21.085938 C 468.609375 23.257812 465.351562 24.738281 465.351562 24.34375 C 465.351562 23.949219 466.535156 21.875 467.820312 19.703125 C 470.882812 14.863281 470.882812 14.46875 468.117188 14.070312 C 466.140625 13.777344 466.4375 13.378906 470.488281 10.417969 C 473.054688 8.539062 474.933594 6.664062 474.636719 6.171875 C 474.339844 5.773438 474.832031 5.082031 475.722656 4.789062 C 477.003906 4.195312 477.105469 3.996094 476.019531 3.304688 C 475.03125 2.613281 475.128906 2.417969 476.414062 2.417969 C 477.300781 2.417969 478.386719 2.023438 478.683594 1.429688 C 479.871094 -0.449219 466.636719 0.738281 463.871094 2.714844 Z M 435.324219 132.792969 C 435.621094 132.792969 435.523438 132.296875 435.226562 131.804688 C 434.929688 131.210938 435.128906 130.816406 435.621094 130.816406 C 436.214844 130.816406 436.707031 131.210938 436.707031 131.804688 C 436.707031 132.296875 437.398438 132.792969 438.289062 132.792969 C 439.175781 132.792969 440.953125 133.679688 442.335938 134.769531 C 445.203125 137.039062 444.609375 137.238281 440.066406 135.558594 C 437.597656 134.667969 435.917969 134.769531 432.164062 135.855469 C 429.496094 136.546875 426.929688 137.039062 426.535156 136.941406 C 426.039062 136.84375 424.363281 136.546875 422.78125 136.347656 C 421.101562 136.152344 419.621094 135.753906 419.324219 135.558594 C 418.632812 134.769531 427.820312 132.695312 428.90625 133.285156 C 429.398438 133.679688 429.792969 133.582031 429.695312 133.089844 C 429.398438 131.210938 429.894531 130.914062 432.363281 131.804688 C 433.746094 132.398438 435.128906 132.792969 435.324219 132.792969 Z M 481.152344 137.039062 C 481.152344 137.136719 481.550781 138.621094 482.042969 140.398438 L 482.933594 143.460938 L 478.386719 141.484375 C 473.054688 139.210938 470.488281 137.136719 474.042969 138.027344 C 475.226562 138.324219 476.214844 138.125 476.214844 137.632812 C 476.214844 137.136719 477.300781 136.742188 478.683594 136.742188 C 480.066406 136.742188 481.152344 136.84375 481.152344 137.039062 Z M 471.96875 140.300781 C 471.671875 140.59375 470.785156 140.695312 470.09375 140.398438 C 469.300781 140.101562 469.597656 139.804688 470.683594 139.804688 C 471.769531 139.707031 472.363281 140.003906 471.96875 140.300781 Z M 432.953125 148.199219 C 430.089844 150.667969 427.324219 153.632812 426.730469 154.621094 C 425.347656 157.386719 424.460938 165.386719 425.84375 163.410156 C 426.632812 162.128906 426.929688 162.324219 427.421875 164.101562 C 428.3125 167.261719 429.203125 166.964844 430.585938 163.113281 C 432.066406 159.066406 436.707031 153.535156 436.707031 155.804688 C 436.707031 156.792969 436.410156 157.484375 436.015625 157.484375 C 435.523438 157.484375 435.128906 159.558594 435.027344 162.226562 L 434.832031 166.867188 L 439.769531 161.140625 L 439.175781 164.597656 C 438.78125 166.671875 439.078125 169.335938 439.867188 171.410156 L 441.25 174.769531 L 442.4375 170.027344 C 443.128906 167.363281 444.117188 165.484375 444.808594 165.683594 C 445.5 165.78125 446.191406 164.890625 446.386719 163.609375 C 446.585938 162.421875 447.277344 161.4375 447.96875 161.4375 C 448.757812 161.4375 449.84375 160.054688 450.535156 158.472656 C 452.117188 154.816406 454.289062 154.621094 455.078125 158.175781 C 457.351562 168.84375 461.398438 180.398438 466.832031 192.152344 C 470.386719 199.757812 473.253906 206.472656 473.253906 207.164062 C 473.253906 207.855469 470.683594 209.929688 467.621094 211.710938 C 464.460938 213.585938 459.324219 216.84375 456.164062 218.917969 C 453.003906 220.992188 449.941406 222.671875 449.449219 222.671875 C 448.957031 222.671875 445.003906 215.460938 440.558594 206.671875 C 436.214844 197.980469 430.585938 187.511719 428.214844 183.558594 C 425.84375 179.609375 422.484375 173.089844 420.90625 169.039062 C 417.546875 160.546875 413.398438 145.929688 414.1875 145.039062 C 414.484375 144.84375 417.152344 145.632812 420.015625 147.015625 C 422.980469 148.300781 425.546875 148.992188 425.644531 148.496094 C 425.84375 148.003906 426.632812 147.609375 427.421875 147.609375 C 428.3125 147.609375 428.609375 148.101562 428.214844 148.792969 C 427.820312 149.484375 427.917969 149.582031 428.609375 149.1875 C 429.300781 148.792969 429.792969 148.003906 429.792969 147.410156 C 429.792969 145.730469 432.953125 143.757812 435.71875 143.65625 C 437.894531 143.65625 437.597656 144.152344 432.953125 148.199219 Z M 475.722656 146.621094 C 475.425781 147.113281 475.523438 147.609375 476.117188 147.609375 C 476.609375 147.609375 477.300781 147.210938 477.695312 146.71875 C 477.992188 146.125 479.375 146.125 481.152344 146.816406 C 483.328125 147.507812 484.316406 148.695312 485.105469 151.359375 C 487.773438 161.4375 493.996094 195.808594 493.996094 200.648438 C 493.996094 202.324219 493.402344 202.917969 491.722656 202.917969 C 490.4375 202.917969 487.277344 203.511719 484.710938 204.300781 L 480.066406 205.683594 L 477.992188 201.632812 C 476.90625 199.363281 473.945312 194.128906 471.476562 190.078125 C 464.460938 178.425781 458.4375 163.609375 458.4375 157.683594 C 458.4375 154.71875 459.226562 154.917969 463.277344 158.671875 C 465.152344 160.449219 466.140625 161.039062 465.351562 159.953125 C 464.265625 158.472656 464.660156 158.570312 466.832031 160.449219 C 468.511719 161.832031 470.09375 163.3125 470.386719 163.707031 C 470.683594 164.199219 471.277344 164.496094 471.671875 164.496094 C 473.648438 164.199219 474.042969 164.695312 474.734375 167.953125 C 475.523438 172.496094 476.316406 171.707031 476.414062 166.375 C 476.414062 163.609375 475.722656 161.238281 474.242188 159.261719 C 470.980469 154.816406 472.660156 154.71875 477.992188 159.164062 C 482.636719 163.113281 482.832031 163.113281 484.019531 161.238281 C 485.007812 159.558594 484.808594 158.769531 482.636719 155.90625 C 479.871094 152.347656 473.648438 148.59375 470.386719 148.59375 C 469.300781 148.59375 468.117188 148.101562 467.722656 147.507812 C 467.226562 146.71875 468.019531 146.519531 470.191406 146.816406 C 471.96875 147.113281 473.550781 146.917969 473.84375 146.421875 C 474.140625 146.027344 474.832031 145.632812 475.328125 145.632812 C 475.917969 145.632812 476.019531 146.027344 475.722656 146.621094 Z M 475.722656 146.621094 " fill-opacity="1" fill-rule="nonzero"/></g><path fill="#443199" d="M 47.558594 252.203125 C 33.925781 253.191406 106.128906 254.277344 177.4375 254.277344 C 247.761719 254.277344 301.589844 253.292969 292.503906 252.203125 C 285.984375 251.414062 59.605469 251.414062 47.558594 252.203125 Z M 47.558594 252.203125 " fill-opacity="1" fill-rule="nonzero"/><path fill="#443199" d="M 165.09375 261.191406 L 161.636719 261.882812 L 165.390625 262.082031 C 167.460938 262.082031 169.933594 262.574219 170.820312 262.96875 C 171.808594 263.464844 174.476562 263.265625 176.945312 262.574219 C 180.796875 261.488281 180.996094 261.292969 178.425781 261.292969 C 176.847656 261.191406 173.882812 260.996094 172.007812 260.796875 C 170.128906 260.601562 166.96875 260.699219 165.09375 261.191406 Z M 165.09375 261.191406 " fill-opacity="1" fill-rule="nonzero"/><path fill="#443199" d="M 200.15625 262.179688 C 200.453125 262.675781 202.03125 263.167969 203.613281 263.167969 C 205.191406 263.167969 206.773438 262.675781 207.070312 262.179688 C 207.464844 261.585938 206.082031 261.191406 203.613281 261.191406 C 201.144531 261.191406 199.761719 261.585938 200.15625 262.179688 Z M 200.15625 262.179688 " fill-opacity="1" fill-rule="nonzero"/><path fill="#443199" d="M 93.484375 268.207031 C 91.3125 268.796875 87.558594 269.589844 85.089844 269.984375 C 81.632812 270.476562 83.507812 270.773438 94.175781 271.367188 C 102.472656 271.761719 108.695312 271.664062 110.277344 271.070312 C 111.757812 270.476562 114.917969 269.984375 117.484375 269.882812 C 120.25 269.785156 118.175781 269.390625 112.746094 268.996094 C 107.609375 268.601562 102.078125 268.105469 100.398438 267.808594 C 98.816406 267.515625 95.65625 267.710938 93.484375 268.207031 Z M 93.484375 268.207031 " fill-opacity="1" fill-rule="nonzero"/><g clip-path="url(#dfd43957cb)"><path fill="#443199" d="M 257.9375 298.328125 C 247.859375 301.195312 237.785156 302.972656 217.441406 305.640625 C 209.042969 306.726562 199.660156 308.304688 196.699219 309.09375 C 193.636719 309.886719 187.117188 310.578125 181.785156 310.578125 C 170.425781 310.578125 162.03125 311.960938 156.695312 314.824219 C 152.84375 316.898438 151.660156 316.996094 118.175781 316.996094 L 83.609375 317.097656 L 76.988281 319.761719 C 71.460938 322.035156 68.988281 322.429688 60.890625 322.429688 C 49.730469 322.429688 4.296875 328.847656 0.9375 330.921875 C -3.605469 333.789062 30.667969 335.863281 56.445312 334.28125 C 93.878906 332.109375 103.261719 331.21875 115.609375 328.847656 C 124.894531 326.972656 132.203125 326.28125 143.957031 326.085938 C 159.757812 325.789062 159.957031 325.6875 165.390625 322.628906 C 170.226562 319.863281 171.90625 319.464844 178.03125 319.464844 C 182.082031 319.464844 189.289062 318.480469 195.117188 317.097656 C 200.550781 315.714844 208.847656 314.332031 213.488281 314.035156 C 225.738281 313.046875 232.847656 311.269531 250.035156 304.453125 C 271.664062 295.960938 274.527344 293.6875 257.9375 298.328125 Z M 257.9375 298.328125 " fill-opacity="1" fill-rule="nonzero"/></g><path fill="#443199" d="M 134.96875 298.726562 C 131.214844 299.8125 126.078125 300.699219 123.609375 300.800781 C 119.460938 300.898438 119.363281 300.898438 121.929688 301.886719 C 123.609375 302.476562 126.96875 302.578125 130.722656 301.984375 C 134.277344 301.589844 140.203125 301.589844 144.648438 302.082031 C 150.472656 302.773438 153.535156 302.675781 156.992188 301.785156 C 159.5625 300.996094 164.300781 299.910156 167.5625 299.21875 L 173.488281 297.933594 L 163.117188 298.035156 C 157.386719 298.132812 150.277344 297.933594 147.3125 297.539062 C 143.265625 296.945312 140.105469 297.34375 134.96875 298.726562 Z M 134.96875 298.726562 " fill-opacity="1" fill-rule="nonzero"/><path fill="#443199" d="M 208.058594 300.207031 L 203.117188 301.492188 L 209.539062 301.589844 C 213.09375 301.589844 217.339844 300.996094 218.921875 300.207031 L 221.886719 298.921875 L 217.441406 298.921875 C 214.972656 298.921875 210.824219 299.515625 208.058594 300.207031 Z M 208.058594 300.207031 " fill-opacity="1" fill-rule="nonzero"/><path fill="#443199" d="M 303.074219 301.195312 C 299.617188 304.257812 293.988281 305.835938 273.542969 309.195312 C 264.355469 310.675781 256.949219 312.257812 256.949219 312.75 C 256.949219 313.640625 262.378906 313.046875 274.234375 310.972656 C 278.578125 310.183594 287.074219 308.699219 293.097656 307.613281 C 307.320312 305.144531 309.492188 304.257812 309.097656 301.492188 C 308.703125 298.429688 306.332031 298.328125 303.074219 301.195312 Z M 303.074219 301.195312 " fill-opacity="1" fill-rule="nonzero"/><path fill="#443199" d="M 320.457031 304.652344 C 319.765625 305.640625 317.296875 307.023438 315.023438 307.714844 C 312.652344 308.304688 309.886719 309.195312 308.800781 309.589844 C 307.023438 310.378906 307.121094 310.476562 309.394531 310.476562 C 313.445312 310.578125 322.433594 308.601562 324.507812 307.121094 C 326.679688 305.441406 325.988281 302.675781 323.417969 302.675781 C 322.433594 302.675781 321.050781 303.566406 320.457031 304.652344 Z M 320.457031 304.652344 " fill-opacity="1" fill-rule="nonzero"/><path fill="#443199" d="M 333.296875 303.761719 C 337.246094 306.132812 333.394531 308.40625 321.839844 310.578125 C 318.183594 311.269531 315.023438 312.15625 314.726562 312.453125 C 314.136719 313.441406 325.394531 311.960938 332.703125 309.984375 C 340.011719 308.109375 342.285156 306.132812 339.421875 304.058594 C 338.433594 303.269531 336.160156 302.675781 334.582031 302.675781 C 332.011719 302.773438 331.816406 302.875 333.296875 303.761719 Z M 333.296875 303.761719 " fill-opacity="1" fill-rule="nonzero"/><path fill="#443199" d="M 350.285156 311.269531 C 345.9375 312.550781 338.136719 314.527344 333 315.613281 C 327.863281 316.699219 322.726562 317.984375 321.640625 318.480469 C 318.777344 319.863281 297.640625 324.898438 284.601562 327.464844 C 275.714844 329.144531 268.996094 329.640625 253.984375 329.835938 C 240.945312 330.035156 229.785156 330.726562 219.414062 332.207031 C 211.019531 333.394531 197.488281 334.972656 189.289062 335.761719 C 181.191406 336.652344 168.550781 338.132812 161.4375 339.21875 C 154.226562 340.308594 144.351562 341.492188 139.414062 341.886719 C 134.574219 342.183594 130.523438 342.875 130.523438 343.269531 C 130.523438 344.457031 152.84375 344.355469 163.117188 343.171875 C 167.757812 342.578125 181.785156 341.691406 194.230469 341.195312 C 206.773438 340.601562 220.105469 339.515625 223.859375 338.726562 C 227.910156 337.9375 236.304688 337.34375 244.109375 337.246094 C 268.996094 337.246094 308.902344 329.246094 336.949219 318.675781 C 351.863281 313.046875 358.679688 309.984375 358.679688 309.09375 C 358.679688 308.800781 358.582031 308.699219 358.484375 308.699219 C 358.285156 308.800781 354.628906 309.886719 350.285156 311.269531 Z M 350.285156 311.269531 " fill-opacity="1" fill-rule="nonzero"/><path fill="#443199" d="M 281.144531 312.652344 C 275.121094 313.835938 273.246094 314.429688 274.035156 315.121094 C 274.628906 315.8125 286.578125 313.640625 288.554688 312.453125 C 290.429688 311.367188 287.960938 311.464844 281.144531 312.652344 Z M 281.144531 312.652344 " fill-opacity="1" fill-rule="nonzero"/><path fill="#443199" d="M 241.144531 317.492188 C 237.09375 317.886719 227.710938 318.675781 220.402344 319.367188 C 213.09375 320.058594 202.425781 321.640625 196.699219 322.921875 C 190.96875 324.207031 184.453125 325.589844 182.082031 325.886719 C 179.710938 326.28125 178.03125 326.773438 178.328125 327.070312 C 179.019531 327.761719 197.6875 325.589844 205.09375 323.910156 C 208.351562 323.21875 216.847656 322.332031 223.859375 321.9375 C 238.082031 321.246094 244.898438 320.058594 247.664062 317.984375 C 248.75 317.195312 249.34375 316.601562 249.046875 316.699219 C 248.75 316.699219 245.195312 317.097656 241.144531 317.492188 Z M 241.144531 317.492188 " fill-opacity="1" fill-rule="nonzero"/><path fill="#443199" d="M 295.074219 318.578125 C 282.332031 320.75 280.652344 321.246094 286.578125 321.34375 C 292.40625 321.441406 302.777344 319.761719 306.726562 317.984375 C 310.875 316.207031 308.40625 316.304688 295.074219 318.578125 Z M 295.074219 318.578125 " fill-opacity="1" fill-rule="nonzero"/><path fill="#443199" d="M 333.988281 332.40625 C 301.492188 336.652344 297.640625 337.542969 276.207031 344.652344 C 259.121094 350.28125 229.6875 356.109375 188.796875 361.9375 C 180.894531 363.023438 168.945312 365 162.128906 366.28125 C 135.757812 371.320312 127.558594 372.605469 102.964844 375.765625 C 93.980469 376.949219 80.941406 379.125 73.828125 380.703125 C 58.617188 384.0625 42.421875 386.828125 23.851562 389.199219 C 16.542969 390.085938 10.125 391.273438 9.53125 391.765625 C 8.34375 393.050781 41.925781 392.0625 48.542969 390.679688 C 51.015625 390.183594 65.632812 388.109375 81.136719 386.234375 C 113.632812 382.085938 115.3125 381.789062 150.277344 373.886719 C 181.585938 366.777344 199.464844 363.714844 225.835938 360.949219 C 246.773438 358.679688 281.441406 354.035156 295.46875 351.46875 C 305.738281 349.691406 318.285156 346.132812 317.691406 345.144531 C 317.492188 344.851562 313.34375 344.652344 308.605469 344.949219 C 297.148438 345.542969 298.726562 344.160156 313.738281 340.800781 C 332.902344 336.453125 348.210938 332.304688 349.199219 331.320312 C 350.382812 330.132812 351.074219 330.132812 333.988281 332.40625 Z M 333.988281 332.40625 " fill-opacity="1" fill-rule="nonzero"/><path fill="#443199" d="M 233.539062 345.542969 C 229.589844 346.234375 226.03125 347.023438 225.738281 347.417969 C 224.058594 349.097656 247.367188 347.023438 250.824219 345.246094 C 252.996094 344.058594 241.144531 344.355469 233.539062 345.542969 Z M 233.539062 345.542969 " fill-opacity="1" fill-rule="nonzero"/><path fill="#443199" d="M 77.285156 350.675781 C 71.0625 351.46875 65.828125 352.257812 65.53125 352.554688 C 65.238281 352.851562 70.667969 353.046875 77.582031 353.046875 C 90.125 353.046875 103.558594 351.566406 105.335938 349.984375 C 106.71875 348.703125 90.226562 349.097656 77.285156 350.675781 Z M 77.285156 350.675781 " fill-opacity="1" fill-rule="nonzero"/><path fill="#443199" d="M 169.042969 352.554688 C 148.695312 355.023438 139.707031 355.914062 125.484375 357 C 97.433594 359.074219 99.410156 361.542969 128.351562 360.652344 C 146.820312 360.0625 158.078125 358.679688 168.054688 356.011719 C 170.625 355.320312 179.414062 354.726562 188.796875 354.628906 C 202.230469 354.53125 205.585938 354.234375 208.058594 352.851562 C 210.921875 351.171875 210.625 351.171875 195.21875 351.269531 C 186.523438 351.269531 174.773438 351.863281 169.042969 352.554688 Z M 169.042969 352.554688 " fill-opacity="1" fill-rule="nonzero"/><path fill="#443199" d="M 65.335938 363.023438 C 51.410156 363.617188 36.890625 365.296875 35.804688 366.480469 C 33.828125 368.457031 45.878906 368.753906 81.632812 367.664062 C 92.003906 367.371094 102.964844 367.074219 106.128906 366.972656 C 112.746094 366.875 113.039062 364.898438 106.523438 364.898438 C 104.25 364.800781 100.597656 364.207031 98.421875 363.417969 C 94.175781 361.839844 89.832031 361.839844 65.335938 363.023438 Z M 65.335938 363.023438 " fill-opacity="1" fill-rule="nonzero"/><path fill="#443199" d="M 38.46875 377.445312 C 36.394531 377.640625 34.71875 378.332031 34.71875 378.925781 C 34.71875 380.109375 46.867188 379.320312 52 377.839844 C 54.472656 377.050781 53.78125 376.949219 48.542969 377.050781 C 44.988281 377.050781 40.445312 377.246094 38.46875 377.445312 Z M 38.46875 377.445312 " fill-opacity="1" fill-rule="nonzero"/><g transform="matrix(1, 0, 0, 1, 525, 372)"><g clip-path="url(#bf62ec1256)"><g fill="#f2a65a" fill-opacity="1"><g transform="translate(0.750935, 25.970995)"><g><path d="M 5.5625 -8.5 L 0.546875 -23.71875 L 3.28125 -23.71875 L 6.984375 -12.0625 L 10.703125 -23.71875 L 13.21875 -23.71875 L 8.15625 -8.5 L 8.15625 0 L 5.5625 0 Z M 5.5625 -8.5 "/></g></g></g><g fill="#f2a65a" fill-opacity="1"><g transform="translate(13.991345, 25.970995)"><g><path d="M 1.15625 -17.984375 C 1.15625 -19.816406 1.597656 -21.269531 2.484375 -22.34375 C 3.378906 -23.414062 4.742188 -23.953125 6.578125 -23.953125 C 8.398438 -23.953125 9.765625 -23.414062 10.671875 -22.34375 C 11.578125 -21.269531 12.03125 -19.816406 12.03125 -17.984375 L 12.03125 -5.71875 C 12.03125 -3.914062 11.578125 -2.472656 10.671875 -1.390625 C 9.765625 -0.304688 8.398438 0.234375 6.578125 0.234375 C 4.742188 0.234375 3.378906 -0.304688 2.484375 -1.390625 C 1.597656 -2.472656 1.15625 -3.914062 1.15625 -5.71875 Z M 3.765625 -5.59375 C 3.765625 -4.507812 3.992188 -3.664062 4.453125 -3.0625 C 4.921875 -2.46875 5.628906 -2.171875 6.578125 -2.171875 C 7.546875 -2.171875 8.253906 -2.46875 8.703125 -3.0625 C 9.160156 -3.664062 9.390625 -4.507812 9.390625 -5.59375 L 9.390625 -18.125 C 9.390625 -19.207031 9.160156 -20.046875 8.703125 -20.640625 C 8.253906 -21.242188 7.546875 -21.546875 6.578125 -21.546875 C 5.628906 -21.546875 4.921875 -21.242188 4.453125 -20.640625 C 3.992188 -20.046875 3.765625 -19.207031 3.765625 -18.125 Z M 3.765625 -5.59375 "/></g></g></g><g fill="#f2a65a" fill-opacity="1"><g transform="translate(27.164124, 25.970995)"><g><path d="M 3.859375 -5.59375 C 3.859375 -4.507812 4.078125 -3.664062 4.515625 -3.0625 C 4.960938 -2.46875 5.671875 -2.171875 6.640625 -2.171875 C 7.585938 -2.171875 8.28125 -2.46875 8.71875 -3.0625 C 9.164062 -3.664062 9.390625 -4.507812 9.390625 -5.59375 L 9.390625 -23.71875 L 11.859375 -23.71875 L 11.859375 -5.71875 C 11.859375 -3.914062 11.425781 -2.46875 10.5625 -1.375 C 9.707031 -0.28125 8.363281 0.265625 6.53125 0.265625 C 4.726562 0.265625 3.394531 -0.28125 2.53125 -1.375 C 1.675781 -2.46875 1.25 -3.914062 1.25 -5.71875 L 1.25 -23.71875 L 3.859375 -23.71875 Z M 3.859375 -5.59375 "/></g></g></g><g fill="#f2a65a" fill-opacity="1"><g transform="translate(40.26918, 25.970995)"><g><path d="M 6.640625 -23.71875 C 8.515625 -23.71875 9.863281 -23.253906 10.6875 -22.328125 C 11.507812 -21.398438 11.921875 -20.054688 11.921875 -18.296875 L 11.921875 -16.359375 C 11.921875 -15.046875 11.679688 -13.984375 11.203125 -13.171875 C 10.734375 -12.359375 9.992188 -11.796875 8.984375 -11.484375 C 10.066406 -11.171875 10.832031 -10.585938 11.28125 -9.734375 C 11.726562 -8.890625 11.953125 -7.820312 11.953125 -6.53125 L 11.953125 -2.84375 C 11.953125 -2.320312 11.972656 -1.816406 12.015625 -1.328125 C 12.066406 -0.847656 12.207031 -0.40625 12.4375 0 L 9.75 0 C 9.59375 -0.34375 9.476562 -0.707031 9.40625 -1.09375 C 9.34375 -1.488281 9.3125 -2.082031 9.3125 -2.875 L 9.3125 -6.609375 C 9.3125 -7.941406 9.007812 -8.859375 8.40625 -9.359375 C 7.8125 -9.867188 6.960938 -10.125 5.859375 -10.125 L 4 -10.125 L 4 0 L 1.359375 0 L 1.359375 -23.71875 Z M 5.96875 -12.53125 C 7.019531 -12.53125 7.835938 -12.75 8.421875 -13.1875 C 9.015625 -13.632812 9.3125 -14.5 9.3125 -15.78125 L 9.3125 -18.0625 C 9.3125 -19.144531 9.101562 -19.957031 8.6875 -20.5 C 8.269531 -21.039062 7.566406 -21.3125 6.578125 -21.3125 L 4 -21.3125 L 4 -12.53125 Z M 5.96875 -12.53125 "/></g></g></g><g fill="#f2a65a" fill-opacity="1"><g transform="translate(53.611277, 25.970995)"><g/></g></g><g fill="#f2a65a" fill-opacity="1"><g transform="translate(58.860074, 25.970995)"><g><path d="M 6.53125 -23.71875 C 8.40625 -23.71875 9.757812 -23.203125 10.59375 -22.171875 C 11.4375 -21.140625 11.859375 -19.722656 11.859375 -17.921875 L 11.859375 -15.078125 C 11.859375 -13.179688 11.410156 -11.75 10.515625 -10.78125 C 9.628906 -9.820312 8.234375 -9.34375 6.328125 -9.34375 L 4 -9.34375 L 4 0 L 1.359375 0 L 1.359375 -23.71875 Z M 6.328125 -11.71875 C 7.328125 -11.71875 8.0625 -11.957031 8.53125 -12.4375 C 9.007812 -12.925781 9.25 -13.75 9.25 -14.90625 L 9.25 -18.0625 C 9.25 -19.144531 9.039062 -19.957031 8.625 -20.5 C 8.207031 -21.039062 7.507812 -21.3125 6.53125 -21.3125 L 4 -21.3125 L 4 -11.71875 Z M 6.328125 -11.71875 "/></g></g></g><g fill="#f2a65a" fill-opacity="1"><g transform="translate(70.983017, 25.970995)"><g><path d="M 4.03125 -4.78125 L 3.109375 0 L 0.671875 0 L 5.21875 -23.71875 L 9.046875 -23.71875 L 13.578125 0 L 10.9375 0 L 10.03125 -4.78125 Z M 4.375 -7.046875 L 9.65625 -7.046875 L 6.984375 -20.734375 Z M 4.375 -7.046875 "/></g></g></g><g fill="#f2a65a" fill-opacity="1"><g transform="translate(85.273284, 25.970995)"><g><path d="M 1.359375 0 L 1.359375 -23.71875 L 4 -23.71875 L 4 -2.40625 L 10.765625 -2.40625 L 10.765625 0 Z M 1.359375 0 "/></g></g></g><g fill="#f2a65a" fill-opacity="1"><g transform="translate(96.685178, 25.970995)"><g><path d="M 4.03125 -4.78125 L 3.109375 0 L 0.671875 0 L 5.21875 -23.71875 L 9.046875 -23.71875 L 13.578125 0 L 10.9375 0 L 10.03125 -4.78125 Z M 4.375 -7.046875 L 9.65625 -7.046875 L 6.984375 -20.734375 Z M 4.375 -7.046875 "/></g></g></g><g fill="#f2a65a" fill-opacity="1"><g transform="translate(110.467402, 25.970995)"><g><path d="M 7.65625 0 L 4.03125 0 L 0.78125 -23.71875 L 3.359375 -23.71875 L 6.125 -3.515625 L 8.78125 -23.671875 L 11.375 -23.671875 L 13.984375 -3.484375 L 16.671875 -23.71875 L 18.96875 -23.71875 L 15.75 0 L 12.265625 0 L 10 -16.09375 Z M 7.65625 0 "/></g></g></g><g fill="#f2a65a" fill-opacity="1"><g transform="translate(129.701592, 25.970995)"><g><path d="M 4.03125 -4.78125 L 3.109375 0 L 0.671875 0 L 5.21875 -23.71875 L 9.046875 -23.71875 L 13.578125 0 L 10.9375 0 L 10.03125 -4.78125 Z M 4.375 -7.046875 L 9.65625 -7.046875 L 6.984375 -20.734375 Z M 4.375 -7.046875 "/></g></g></g><g fill="#f2a65a" fill-opacity="1"><g transform="translate(143.991859, 25.970995)"><g><path d="M 3.6875 0 L 1.328125 0 L 1.328125 -23.71875 L 4.671875 -23.71875 L 10.15625 -6.578125 L 10.15625 -23.71875 L 12.5 -23.71875 L 12.5 0 L 9.75 0 L 3.6875 -19.171875 Z M 3.6875 0 "/></g></g></g><g fill="#f2a65a" fill-opacity="1"><g transform="translate(157.841898, 25.970995)"><g/></g></g><g fill="#f2a65a" fill-opacity="1"><g transform="translate(163.090694, 25.970995)"><g><path d="M 4.78125 0 L 4.78125 -21.3125 L 0.40625 -21.3125 L 0.40625 -23.71875 L 11.75 -23.71875 L 11.75 -21.3125 L 7.390625 -21.3125 L 7.390625 0 Z M 4.78125 0 "/></g></g></g><g fill="#f2a65a" fill-opacity="1"><g transform="translate(175.281451, 25.970995)"><g><path d="M 6.640625 -23.71875 C 8.515625 -23.71875 9.863281 -23.253906 10.6875 -22.328125 C 11.507812 -21.398438 11.921875 -20.054688 11.921875 -18.296875 L 11.921875 -16.359375 C 11.921875 -15.046875 11.679688 -13.984375 11.203125 -13.171875 C 10.734375 -12.359375 9.992188 -11.796875 8.984375 -11.484375 C 10.066406 -11.171875 10.832031 -10.585938 11.28125 -9.734375 C 11.726562 -8.890625 11.953125 -7.820312 11.953125 -6.53125 L 11.953125 -2.84375 C 11.953125 -2.320312 11.972656 -1.816406 12.015625 -1.328125 C 12.066406 -0.847656 12.207031 -0.40625 12.4375 0 L 9.75 0 C 9.59375 -0.34375 9.476562 -0.707031 9.40625 -1.09375 C 9.34375 -1.488281 9.3125 -2.082031 9.3125 -2.875 L 9.3125 -6.609375 C 9.3125 -7.941406 9.007812 -8.859375 8.40625 -9.359375 C 7.8125 -9.867188 6.960938 -10.125 5.859375 -10.125 L 4 -10.125 L 4 0 L 1.359375 0 L 1.359375 -23.71875 Z M 5.96875 -12.53125 C 7.019531 -12.53125 7.835938 -12.75 8.421875 -13.1875 C 9.015625 -13.632812 9.3125 -14.5 9.3125 -15.78125 L 9.3125 -18.0625 C 9.3125 -19.144531 9.101562 -19.957031 8.6875 -20.5 C 8.269531 -21.039062 7.566406 -21.3125 6.578125 -21.3125 L 4 -21.3125 L 4 -12.53125 Z M 5.96875 -12.53125 "/></g></g></g><g fill="#f2a65a" fill-opacity="1"><g transform="translate(188.623527, 25.970995)"><g><path d="M 4.03125 -4.78125 L 3.109375 0 L 0.671875 0 L 5.21875 -23.71875 L 9.046875 -23.71875 L 13.578125 0 L 10.9375 0 L 10.03125 -4.78125 Z M 4.375 -7.046875 L 9.65625 -7.046875 L 6.984375 -20.734375 Z M 4.375 -7.046875 "/></g></g></g><g fill="#f2a65a" fill-opacity="1"><g transform="translate(202.067056, 25.970995)"><g><path d="M 3.359375 -23.71875 L 7.21875 -3.078125 L 11.046875 -23.71875 L 13.484375 -23.71875 L 9.046875 0 L 5.15625 0 L 0.671875 -23.71875 Z M 3.359375 -23.71875 "/></g></g></g><g fill="#f2a65a" fill-opacity="1"><g transform="translate(216.221888, 25.970995)"><g><path d="M 9.796875 -13.21875 L 9.796875 -10.84375 L 4 -10.84375 L 4 -2.40625 L 11.109375 -2.40625 L 11.109375 0 L 1.359375 0 L 1.359375 -23.71875 L 11.109375 -23.71875 L 11.109375 -21.3125 L 4 -21.3125 L 4 -13.21875 Z M 9.796875 -13.21875 "/></g></g></g><g fill="#f2a65a" fill-opacity="1"><g transform="translate(228.412614, 25.970995)"><g><path d="M 1.359375 0 L 1.359375 -23.71875 L 4 -23.71875 L 4 -2.40625 L 10.765625 -2.40625 L 10.765625 0 Z M 1.359375 0 "/></g></g></g><g fill="#f2a65a" fill-opacity="1"><g transform="translate(239.824518, 25.970995)"><g/></g></g><g fill="#f2a65a" fill-opacity="1"><g transform="translate(245.073314, 25.970995)"><g><path d="M 6.671875 -23.71875 C 8.523438 -23.71875 9.847656 -23.28125 10.640625 -22.40625 C 11.429688 -21.539062 11.828125 -20.226562 11.828125 -18.46875 L 11.828125 -17.34375 C 11.828125 -16.082031 11.625 -15.0625 11.21875 -14.28125 C 10.8125 -13.5 10.085938 -12.953125 9.046875 -12.640625 C 10.191406 -12.316406 11.007812 -11.710938 11.5 -10.828125 C 11.988281 -9.953125 12.234375 -8.859375 12.234375 -7.546875 L 12.234375 -5.5625 C 12.234375 -3.769531 11.789062 -2.394531 10.90625 -1.4375 C 10.03125 -0.476562 8.664062 0 6.8125 0 L 1.359375 0 L 1.359375 -23.71875 Z M 6.03125 -13.65625 C 7.09375 -13.65625 7.890625 -13.867188 8.421875 -14.296875 C 8.953125 -14.722656 9.21875 -15.554688 9.21875 -16.796875 L 9.21875 -18.1875 C 9.21875 -19.25 9.019531 -20.035156 8.625 -20.546875 C 8.226562 -21.054688 7.554688 -21.3125 6.609375 -21.3125 L 4 -21.3125 L 4 -13.65625 Z M 6.8125 -2.40625 C 8.6875 -2.40625 9.625 -3.476562 9.625 -5.625 L 9.625 -7.71875 C 9.625 -9.050781 9.359375 -9.972656 8.828125 -10.484375 C 8.296875 -10.992188 7.453125 -11.25 6.296875 -11.25 L 4 -11.25 L 4 -2.40625 Z M 6.8125 -2.40625 "/></g></g></g><g fill="#f2a65a" fill-opacity="1"><g transform="translate(258.347668, 25.970995)"><g><path d="M 3.859375 -5.59375 C 3.859375 -4.507812 4.078125 -3.664062 4.515625 -3.0625 C 4.960938 -2.46875 5.671875 -2.171875 6.640625 -2.171875 C 7.585938 -2.171875 8.28125 -2.46875 8.71875 -3.0625 C 9.164062 -3.664062 9.390625 -4.507812 9.390625 -5.59375 L 9.390625 -23.71875 L 11.859375 -23.71875 L 11.859375 -5.71875 C 11.859375 -3.914062 11.425781 -2.46875 10.5625 -1.375 C 9.707031 -0.28125 8.363281 0.265625 6.53125 0.265625 C 4.726562 0.265625 3.394531 -0.28125 2.53125 -1.375 C 1.675781 -2.46875 1.25 -3.914062 1.25 -5.71875 L 1.25 -23.71875 L 3.859375 -23.71875 Z M 3.859375 -5.59375 "/></g></g></g><g fill="#f2a65a" fill-opacity="1"><g transform="translate(271.452724, 25.970995)"><g><path d="M 6.90625 -23.71875 C 8.757812 -23.71875 10.117188 -23.191406 10.984375 -22.140625 C 11.859375 -21.085938 12.296875 -19.644531 12.296875 -17.8125 L 12.296875 -5.859375 C 12.296875 -4.023438 11.859375 -2.585938 10.984375 -1.546875 C 10.117188 -0.515625 8.757812 0 6.90625 0 L 1.359375 0 L 1.359375 -23.71875 Z M 6.875 -2.40625 C 7.820312 -2.40625 8.523438 -2.691406 8.984375 -3.265625 C 9.453125 -3.835938 9.6875 -4.671875 9.6875 -5.765625 L 9.6875 -17.953125 C 9.6875 -19.035156 9.453125 -19.863281 8.984375 -20.4375 C 8.523438 -21.019531 7.8125 -21.3125 6.84375 -21.3125 L 4 -21.3125 L 4 -2.40625 Z M 6.875 -2.40625 "/></g></g></g><g fill="#f2a65a" fill-opacity="1"><g transform="translate(284.862543, 25.970995)"><g><path d="M 6.90625 -23.71875 C 8.757812 -23.71875 10.117188 -23.191406 10.984375 -22.140625 C 11.859375 -21.085938 12.296875 -19.644531 12.296875 -17.8125 L 12.296875 -5.859375 C 12.296875 -4.023438 11.859375 -2.585938 10.984375 -1.546875 C 10.117188 -0.515625 8.757812 0 6.90625 0 L 1.359375 0 L 1.359375 -23.71875 Z M 6.875 -2.40625 C 7.820312 -2.40625 8.523438 -2.691406 8.984375 -3.265625 C 9.453125 -3.835938 9.6875 -4.671875 9.6875 -5.765625 L 9.6875 -17.953125 C 9.6875 -19.035156 9.453125 -19.863281 8.984375 -20.4375 C 8.523438 -21.019531 7.8125 -21.3125 6.84375 -21.3125 L 4 -21.3125 L 4 -2.40625 Z M 6.875 -2.40625 "/></g></g></g><g fill="#f2a65a" fill-opacity="1"><g transform="translate(297.764329, 25.970995)"><g><path d="M 5.5625 -8.5 L 0.546875 -23.71875 L 3.28125 -23.71875 L 6.984375 -12.0625 L 10.703125 -23.71875 L 13.21875 -23.71875 L 8.15625 -8.5 L 8.15625 0 L 5.5625 0 Z M 5.5625 -8.5 "/></g></g></g><g fill="#f2a65a" fill-opacity="1"><g transform="translate(308.803219, 25.970995)"><g><path d="M 3.890625 -3.28125 L 3.890625 0 L 1.359375 0 L 1.359375 -3.28125 Z M 3.890625 -3.28125 "/></g></g></g></g></g><g fill="#ffffff" fill-opacity="1"><g transform="translate(525.750941, 236.875174)"><g/></g></g><g fill="#ffffff" fill-opacity="1"><g transform="translate(553.149769, 236.875174)"><g/></g></g><g fill="#ffffff" fill-opacity="1"><g transform="translate(580.548597, 236.875174)"><g/></g></g><g fill="#ffffff" fill-opacity="1"><g transform="translate(607.949473, 236.875174)"><g><path d="M 51.09375 -68.9375 L 51.09375 -56.5625 L 20.859375 -56.5625 L 20.859375 -12.546875 L 57.984375 -12.546875 L 57.984375 0 L 7.078125 0 L 7.078125 -123.75 L 57.984375 -123.75 L 57.984375 -111.203125 L 20.859375 -111.203125 L 20.859375 -68.9375 Z M 51.09375 -68.9375 "/></g></g></g><g fill="#ffffff" fill-opacity="1"><g transform="translate(671.585446, 236.875174)"><g><path d="M 21.03125 -24.921875 L 16.265625 0 L 3.53125 0 L 27.21875 -123.75 L 47.203125 -123.75 L 70.890625 0 L 57.09375 0 L 52.328125 -24.921875 Z M 22.8125 -36.765625 L 50.375 -36.765625 L 36.421875 -108.1875 Z M 22.8125 -36.765625 "/></g></g></g><g fill="#ffffff" fill-opacity="1"><g transform="translate(746.004183, 236.875174)"><g><path d="M 33.765625 -124.984375 C 43.304688 -124.984375 50.347656 -122.15625 54.890625 -116.5 C 59.429688 -110.84375 61.703125 -103.300781 61.703125 -93.875 L 61.703125 -82.734375 L 48.609375 -82.734375 L 48.609375 -94.578125 C 48.609375 -100.234375 47.457031 -104.625 45.15625 -107.75 C 42.863281 -110.875 39.1875 -112.4375 34.125 -112.4375 C 29.164062 -112.4375 25.507812 -110.875 23.15625 -107.75 C 20.800781 -104.625 19.625 -100.234375 19.625 -94.578125 L 19.625 -29.171875 C 19.625 -23.515625 20.800781 -19.125 23.15625 -16 C 25.507812 -12.875 29.164062 -11.3125 34.125 -11.3125 C 39.1875 -11.3125 42.863281 -12.875 45.15625 -16 C 47.457031 -19.125 48.609375 -23.515625 48.609375 -29.171875 L 48.609375 -45.25 L 61.703125 -45.25 L 61.703125 -29.875 C 61.703125 -20.445312 59.429688 -12.90625 54.890625 -7.25 C 50.347656 -1.59375 43.304688 1.234375 33.765625 1.234375 C 24.335938 1.234375 17.351562 -1.59375 12.8125 -7.25 C 8.28125 -12.90625 6.015625 -20.445312 6.015625 -29.875 L 6.015625 -93.875 C 6.015625 -98.582031 6.570312 -102.851562 7.6875 -106.6875 C 8.8125 -110.519531 10.519531 -113.789062 12.8125 -116.5 C 15.113281 -119.207031 18 -121.296875 21.46875 -122.765625 C 24.945312 -124.242188 29.046875 -124.984375 33.765625 -124.984375 Z M 33.765625 -124.984375 "/></g></g></g><g fill="#ffffff" fill-opacity="1"><g transform="translate(813.175499, 236.875174)"><g><path d="M 20.859375 -55.6875 L 20.859375 0 L 7.078125 0 L 7.078125 -123.75 L 20.859375 -123.75 L 20.859375 -68.0625 L 51.265625 -68.0625 L 51.265625 -123.75 L 65.0625 -123.75 L 65.0625 0 L 51.265625 0 L 51.265625 -55.6875 Z M 20.859375 -55.6875 "/></g></g></g><g fill="#ffffff" fill-opacity="1"><g transform="translate(885.296292, 236.875174)"><g><path d="M 51.09375 -68.9375 L 51.09375 -56.5625 L 20.859375 -56.5625 L 20.859375 -12.546875 L 57.984375 -12.546875 L 57.984375 0 L 7.078125 0 L 7.078125 -123.75 L 57.984375 -123.75 L 57.984375 -111.203125 L 20.859375 -111.203125 L 20.859375 -68.9375 Z M 51.09375 -68.9375 "/></g></g></g><g fill="#ffffff" fill-opacity="1"><g transform="translate(948.932252, 236.875174)"><g><path d="M 33.0625 -124.984375 C 42.488281 -124.984375 49.441406 -122.179688 53.921875 -116.578125 C 58.398438 -110.984375 60.640625 -103.472656 60.640625 -94.046875 L 60.640625 -90.6875 L 47.546875 -90.6875 L 47.546875 -94.75 C 47.546875 -100.40625 46.425781 -104.765625 44.1875 -107.828125 C 41.957031 -110.898438 38.363281 -112.4375 33.40625 -112.4375 C 28.457031 -112.4375 24.863281 -110.898438 22.625 -107.828125 C 20.382812 -104.765625 19.265625 -100.46875 19.265625 -94.9375 C 19.265625 -90.332031 20.296875 -86.320312 22.359375 -82.90625 C 24.421875 -79.488281 26.984375 -76.335938 30.046875 -73.453125 C 33.117188 -70.566406 36.453125 -67.738281 40.046875 -64.96875 C 43.640625 -62.195312 46.96875 -59.160156 50.03125 -55.859375 C 53.09375 -52.554688 55.65625 -48.8125 57.71875 -44.625 C 59.78125 -40.445312 60.8125 -35.472656 60.8125 -29.703125 C 60.8125 -20.273438 58.539062 -12.757812 54 -7.15625 C 49.46875 -1.5625 42.425781 1.234375 32.875 1.234375 C 23.332031 1.234375 16.320312 -1.5625 11.84375 -7.15625 C 7.363281 -12.757812 5.125 -20.273438 5.125 -29.703125 L 5.125 -36.765625 L 18.03125 -36.765625 L 18.03125 -28.984375 C 18.03125 -23.328125 19.207031 -18.96875 21.5625 -15.90625 C 23.925781 -12.84375 27.582031 -11.3125 32.53125 -11.3125 C 37.476562 -11.3125 41.128906 -12.84375 43.484375 -15.90625 C 45.847656 -18.96875 47.03125 -23.328125 47.03125 -28.984375 C 47.03125 -33.585938 46 -37.566406 43.9375 -40.921875 C 41.875 -44.285156 39.304688 -47.410156 36.234375 -50.296875 C 33.171875 -53.179688 29.867188 -56.007812 26.328125 -58.78125 C 22.796875 -61.550781 19.5 -64.582031 16.4375 -67.875 C 13.375 -71.175781 10.8125 -74.921875 8.75 -79.109375 C 6.6875 -83.296875 5.65625 -88.273438 5.65625 -94.046875 C 5.65625 -103.585938 7.894531 -111.128906 12.375 -116.671875 C 16.851562 -122.210938 23.75 -124.984375 33.0625 -124.984375 Z M 33.0625 -124.984375 "/></g></g></g><g fill="#e05454" fill-opacity="1"><g transform="translate(525.750941, 361.503179)"><g><path d="M 1.265625 -110.578125 L 54.96875 -110.578125 L 54.96875 -94.78125 L 36.8125 -94.78125 L 36.8125 0 L 19.4375 0 L 19.4375 -94.78125 L 1.265625 -94.78125 Z M 1.265625 -110.578125 "/></g></g></g><g fill="#e05454" fill-opacity="1"><g transform="translate(581.981788, 361.503179)"><g><path d="M 42.65625 0 C 42.4375 -0.738281 42.222656 -1.421875 42.015625 -2.046875 C 41.804688 -2.679688 41.625 -3.472656 41.46875 -4.421875 C 41.3125 -5.367188 41.207031 -6.578125 41.15625 -8.046875 C 41.101562 -9.523438 41.078125 -11.367188 41.078125 -13.578125 L 41.078125 -30.96875 C 41.078125 -36.125 40.179688 -39.753906 38.390625 -41.859375 C 36.597656 -43.960938 33.703125 -45.015625 29.703125 -45.015625 L 23.703125 -45.015625 L 23.703125 0 L 6.3125 0 L 6.3125 -110.578125 L 32.546875 -110.578125 C 41.597656 -110.578125 48.148438 -108.46875 52.203125 -104.25 C 56.265625 -100.039062 58.296875 -93.671875 58.296875 -85.140625 L 58.296875 -76.453125 C 58.296875 -65.078125 54.503906 -57.601562 46.921875 -54.03125 C 51.335938 -52.238281 54.363281 -49.3125 56 -45.25 C 57.632812 -41.195312 58.453125 -36.273438 58.453125 -30.484375 L 58.453125 -13.421875 C 58.453125 -10.679688 58.554688 -8.285156 58.765625 -6.234375 C 58.972656 -4.179688 59.5 -2.101562 60.34375 0 Z M 23.703125 -94.78125 L 23.703125 -60.8125 L 30.484375 -60.8125 C 33.753906 -60.8125 36.304688 -61.65625 38.140625 -63.34375 C 39.984375 -65.03125 40.90625 -68.082031 40.90625 -72.5 L 40.90625 -83.40625 C 40.90625 -87.40625 40.195312 -90.300781 38.78125 -92.09375 C 37.363281 -93.882812 35.125 -94.78125 32.0625 -94.78125 Z M 23.703125 -94.78125 "/></g></g></g><g fill="#e05454" fill-opacity="1"><g transform="translate(645.478417, 361.503179)"><g><path d="M 62.5625 0 L 45.015625 0 L 42.015625 -20.0625 L 20.6875 -20.0625 L 17.6875 0 L 1.734375 0 L 19.4375 -110.578125 L 44.859375 -110.578125 Z M 22.90625 -35.0625 L 39.65625 -35.0625 L 31.28125 -90.984375 Z M 22.90625 -35.0625 "/></g></g></g><g fill="#e05454" fill-opacity="1"><g transform="translate(705.815764, 361.503179)"><g><path d="M 32.546875 -20.375 L 45.8125 -110.578125 L 61.765625 -110.578125 L 44.703125 0 L 18.796875 0 L 1.734375 -110.578125 L 19.265625 -110.578125 Z M 32.546875 -20.375 "/></g></g></g><g fill="#e05454" fill-opacity="1"><g transform="translate(769.312379, 361.503179)"><g><path d="M 23.703125 -63.984375 L 47.546875 -63.984375 L 47.546875 -48.1875 L 23.703125 -48.1875 L 23.703125 -15.796875 L 53.703125 -15.796875 L 53.703125 0 L 6.3125 0 L 6.3125 -110.578125 L 53.703125 -110.578125 L 53.703125 -94.78125 L 23.703125 -94.78125 Z M 23.703125 -63.984375 "/></g></g></g><g fill="#e05454" fill-opacity="1"><g transform="translate(827.438658, 361.503179)"><g><path d="M 6.3125 -110.578125 L 23.703125 -110.578125 L 23.703125 -15.796875 L 52.28125 -15.796875 L 52.28125 0 L 6.3125 0 Z M 6.3125 -110.578125 "/></g></g></g><g fill="#e05454" fill-opacity="1"><g transform="translate(880.984317, 361.503179)"><g/></g></g><g fill="#e05454" fill-opacity="1"><g transform="translate(905.466849, 361.503179)"><g><path d="M 6.3125 -110.578125 L 23.703125 -110.578125 L 23.703125 0 L 6.3125 0 Z M 6.3125 -110.578125 "/></g></g></g><g fill="#e05454" fill-opacity="1"><g transform="translate(935.477677, 361.503179)"><g><path d="M 21.796875 -80.09375 L 21.796875 0 L 6.15625 0 L 6.15625 -110.578125 L 27.953125 -110.578125 L 45.8125 -44.390625 L 45.8125 -110.578125 L 61.296875 -110.578125 L 61.296875 0 L 43.4375 0 Z M 21.796875 -80.09375 "/></g></g></g><g fill="#e05454" fill-opacity="1"><g transform="translate(1002.923089, 361.503179)"><g><path d="M 56.703125 -41.234375 L 56.703125 -26.53125 C 56.703125 -17.582031 54.515625 -10.710938 50.140625 -5.921875 C 45.773438 -1.128906 39.328125 1.265625 30.796875 1.265625 C 22.273438 1.265625 15.828125 -1.128906 11.453125 -5.921875 C 7.078125 -10.710938 4.890625 -17.582031 4.890625 -26.53125 L 4.890625 -84.046875 C 4.890625 -92.992188 7.078125 -99.863281 11.453125 -104.65625 C 15.828125 -109.445312 22.273438 -111.84375 30.796875 -111.84375 C 39.328125 -111.84375 45.773438 -109.445312 50.140625 -104.65625 C 54.515625 -99.863281 56.703125 -92.992188 56.703125 -84.046875 L 56.703125 -73.296875 L 40.28125 -73.296875 L 40.28125 -85.140625 C 40.28125 -89.140625 39.460938 -91.957031 37.828125 -93.59375 C 36.203125 -95.226562 34.019531 -96.046875 31.28125 -96.046875 C 28.539062 -96.046875 26.351562 -95.226562 24.71875 -93.59375 C 23.09375 -91.957031 22.28125 -89.140625 22.28125 -85.140625 L 22.28125 -25.4375 C 22.28125 -21.4375 23.09375 -18.644531 24.71875 -17.0625 C 26.351562 -15.476562 28.539062 -14.6875 31.28125 -14.6875 C 34.019531 -14.6875 36.203125 -15.476562 37.828125 -17.0625 C 39.460938 -18.644531 40.28125 -21.4375 40.28125 -25.4375 L 40.28125 -41.234375 Z M 56.703125 -41.234375 "/></g></g></g><g fill="#e05454" fill-opacity="1"><g transform="translate(1062.944746, 361.503179)"><g><path d="M 23.0625 -16.75 L 23.0625 0 L 6.3125 0 L 6.3125 -16.75 Z M 23.0625 -16.75 "/></g></g></g><g fill="#ffffff" fill-opacity="1"><g transform="translate(516.215287, 238.983058)"><g><path d="M 47.328125 -168.15625 C 60.453125 -168.15625 69.816406 -165.070312 75.421875 -158.90625 C 81.035156 -152.738281 83.84375 -143.410156 83.84375 -130.921875 L 83.84375 -122.984375 C 83.84375 -114.023438 82.398438 -106.78125 79.515625 -101.25 C 76.628906 -95.726562 71.503906 -91.84375 64.140625 -89.59375 C 72.304688 -87.351562 78.109375 -83.109375 81.546875 -76.859375 C 84.992188 -70.617188 86.71875 -62.851562 86.71875 -53.5625 L 86.71875 -39.390625 C 86.71875 -26.742188 83.59375 -17.015625 77.34375 -10.203125 C 71.101562 -3.398438 61.414062 0 48.28125 0 L 9.609375 0 L 9.609375 -168.15625 Z M 42.765625 -96.8125 C 50.285156 -96.8125 55.925781 -98.332031 59.6875 -101.375 C 63.457031 -104.414062 65.34375 -110.34375 65.34375 -119.15625 L 65.34375 -129 C 65.34375 -136.519531 63.941406 -142.082031 61.140625 -145.6875 C 58.335938 -149.289062 53.570312 -151.09375 46.84375 -151.09375 L 28.34375 -151.09375 L 28.34375 -96.8125 Z M 48.28125 -17.0625 C 61.570312 -17.0625 68.21875 -24.664062 68.21875 -39.875 L 68.21875 -54.765625 C 68.21875 -64.210938 66.335938 -70.738281 62.578125 -74.34375 C 58.816406 -77.945312 52.851562 -79.75 44.6875 -79.75 L 28.34375 -79.75 L 28.34375 -17.0625 Z M 48.28125 -17.0625 "/></g></g></g></g></g></svg>